<svg width="1628" height="418" viewBox="0 0 1628 418" fill="none" xmlns="http://www.w3.org/2000/svg">
<g clip-path="url(#clip0_592_4757)">
<path d="M782.138 391.318L817.889 21.987C819.018 10.2731 828.928 1.31543 840.719 1.31543H939.882C951.674 1.31543 961.584 10.2731 962.713 22.0496L998.025 391.381C999.279 404.786 988.742 416.375 975.257 416.375H942.454C930.599 416.375 920.689 407.292 919.686 395.515L917.491 370.02C916.487 358.244 906.64 349.224 894.785 349.224H886.569C874.652 349.224 864.742 358.432 863.864 370.333L862.045 395.202C861.167 407.166 851.257 416.375 839.277 416.375H804.906C791.42 416.375 780.883 404.786 782.138 391.381V391.318ZM890.395 282.949C900.619 282.949 908.647 274.18 907.769 264.032L891.21 136.495C891.085 135.43 890.207 134.553 889.141 134.553C888.012 134.553 887.133 135.43 887.071 136.495L873.084 264.22C872.331 274.305 880.36 282.887 890.458 282.887L890.395 282.949Z" fill="#2C3538"/>
<path d="M0 394.388V23.177C0 11.0873 9.84728 1.25269 21.9525 1.25269H107.63C118.606 1.25269 127.889 9.33337 129.395 20.1703L150.908 176.647C152.601 189.05 170.603 189.05 172.296 176.647L193.81 20.1703C195.315 9.33337 204.598 1.25269 215.574 1.25269H302.255C314.36 1.25269 324.208 11.0873 324.208 23.177V394.388C324.208 406.477 314.36 416.312 302.255 416.312H270.204C258.099 416.312 248.252 406.477 248.252 394.388V243.673C248.252 231.27 230.188 229.892 228.244 242.107L203.28 397.895C201.587 408.544 192.367 416.375 181.642 416.375H144.385C133.66 416.375 124.565 408.67 122.746 398.146L96.4657 243.297C94.2705 230.268 75.0777 231.897 75.0777 245.114V394.513C75.0777 406.603 65.2304 416.437 53.1251 416.437H21.9525C9.84728 416.437 0 406.603 0 394.513V394.388Z" fill="#2C3538"/>
<path d="M352.182 391.318L387.933 21.9242C389.062 10.2103 398.972 1.25269 410.763 1.25269H509.926C521.718 1.25269 531.628 10.2103 532.757 21.9869L568.069 391.318C569.323 404.723 558.786 416.312 545.301 416.312H512.498C500.643 416.312 490.733 407.229 489.73 395.452L487.535 369.958C486.531 358.181 476.684 349.161 464.829 349.161H456.613C444.696 349.161 434.786 358.369 433.908 370.271L432.089 395.139C431.211 407.104 421.301 416.312 409.321 416.312H374.949C361.464 416.312 350.927 404.723 352.182 391.318ZM460.439 282.949C470.663 282.949 478.691 274.179 477.813 264.032L461.254 136.495C461.129 135.43 460.251 134.553 459.184 134.553C458.055 134.553 457.177 135.43 457.115 136.495L443.128 264.22C442.375 274.305 450.403 282.887 460.502 282.887L460.439 282.949Z" fill="#2C3538"/>
<path d="M595.541 393.573V23.9914C595.541 11.4005 605.765 1.25269 618.309 1.25269H655.942C668.549 1.25269 678.71 11.4632 678.71 23.9914V322.977C678.71 335.568 688.934 345.715 701.478 345.715H741.557C754.164 345.715 764.325 355.926 764.325 368.454V393.511C764.325 406.101 754.101 416.249 741.557 416.249H618.246C605.639 416.249 595.479 406.039 595.479 393.511L595.541 393.573Z" fill="#2C3538"/>
<path d="M1412.11 392.571L1447.86 23.2399C1448.99 11.526 1458.9 2.56836 1470.7 2.56836H1569.86C1581.65 2.56836 1591.56 11.526 1592.69 23.3025L1628 392.634C1629.26 406.039 1618.72 417.628 1605.23 417.628H1572.43C1560.58 417.628 1550.67 408.545 1549.66 396.768L1547.47 371.273C1546.46 359.497 1536.62 350.476 1524.76 350.476H1516.54C1504.63 350.476 1494.72 359.685 1493.84 371.586L1492.02 396.455C1491.14 408.419 1481.23 417.628 1469.25 417.628H1434.88C1421.4 417.628 1410.86 406.039 1412.11 392.634V392.571ZM1520.37 284.202C1530.59 284.202 1538.62 275.432 1537.74 265.285L1521.19 137.748C1521.06 136.683 1520.18 135.806 1519.12 135.806C1517.99 135.806 1517.11 136.683 1517.05 137.748L1503.06 265.473C1502.31 275.558 1510.34 284.14 1520.43 284.14L1520.37 284.202Z" fill="#EDE8DE"/>
<path d="M1275.63 395.014L1234.61 25.5572C1233.11 11.9014 1243.77 -0.0629883 1257.57 -0.0629883H1282.22C1294.13 -0.0629883 1304.04 8.95732 1305.17 20.7965L1322.23 196.818C1323.17 206.339 1337.16 206.276 1337.98 196.755L1353.15 21.047C1354.16 9.14524 1364.19 -0.000347279 1376.17 -0.000347279H1400.57C1414.31 -0.000347279 1425.03 11.9641 1423.53 25.6198L1382.51 395.076C1381.19 406.728 1371.34 415.56 1359.55 415.56H1298.59C1286.79 415.56 1276.95 406.728 1275.63 395.076V395.014Z" fill="#EDE8DE"/>
<path d="M1038.98 387.372C1022.55 368.266 1014.33 339.89 1014.33 302.305V24.555C1014.33 11.9015 1024.62 1.62842 1037.29 1.62842H1071.35C1084.02 1.62842 1094.3 11.9015 1094.3 24.555V298.923C1094.3 312.015 1095.56 322.162 1098.13 329.491C1100.7 336.82 1106.09 340.454 1114.37 340.454C1122.65 340.454 1128.11 336.883 1130.62 329.679C1133.19 322.538 1134.44 312.202 1134.44 298.86V24.555C1134.44 11.9015 1144.73 1.62842 1157.4 1.62842H1191.46C1204.13 1.62842 1214.41 11.9015 1214.41 24.555V302.243C1214.41 339.827 1206.2 368.204 1189.76 387.309C1173.33 406.415 1148.18 415.999 1114.37 415.999C1080.57 415.999 1055.41 406.415 1038.98 387.309V387.372Z" fill="#EDE8DE"/>
</g>
<defs>
<clipPath id="clip0_592_4757">
<rect width="1628" height="417.565" fill="white"/>
</clipPath>
</defs>
</svg>
