<svg width="72" height="43" viewBox="0 0 72 43" fill="none" xmlns="http://www.w3.org/2000/svg">
<path d="M0.00112521 20.3635V1.15032C0.00112521 0.523315 0.510844 0.0161133 1.14096 0.0161133H5.59227C6.16163 0.0161133 6.64434 0.434863 6.72086 0.995808L7.83931 9.09649C7.9282 9.73917 8.86212 9.73917 8.95102 9.09649L10.0695 0.995808C10.1471 0.434863 10.6287 0.0161133 11.1981 0.0161133H15.6989C16.3279 0.0161133 16.8387 0.523315 16.8387 1.15032V20.3635C16.8387 20.9894 16.329 21.4977 15.6989 21.4977H14.0324C13.4035 21.4977 12.8926 20.9905 12.8926 20.3635V12.5629C12.8926 11.9225 11.9553 11.8486 11.854 12.4812L10.5578 20.5438C10.4689 21.0936 9.99183 21.4989 9.4326 21.4989H7.49725C6.9414 21.4989 6.46656 21.1003 6.37317 20.555L5.00717 12.5405C4.8924 11.8676 3.89546 11.9505 3.89546 12.6335V20.3658C3.89546 20.9917 3.38575 21.5 2.75563 21.5H1.13983C0.510844 21.5 0 20.9928 0 20.3658L0.00112521 20.3635Z" fill="#F2EFE8"/>
<path d="M18.0066 20.2055L19.8317 1.08661C19.8893 0.479697 20.3936 0.0161133 20.9965 0.0161133H26.0592C26.662 0.0161133 27.1664 0.480817 27.2239 1.08773L29.0269 20.2067C29.0922 20.8998 28.5535 21.5 27.8655 21.5H26.1919C25.5869 21.5 25.0814 21.0308 25.0294 20.4205L24.9166 19.0992C24.8646 18.49 24.3613 18.0231 23.7585 18.0231H23.3381C22.7287 18.0231 22.2221 18.5001 22.1778 19.116L22.086 20.4037C22.0418 21.0218 21.5341 21.5 20.9224 21.5H19.167C18.4778 21.5 17.9392 20.8998 18.0055 20.2055H18.0066ZM23.5339 14.5977C24.056 14.5977 24.4653 14.1453 24.4199 13.6191L23.5737 7.01914C23.5693 6.96315 23.5229 6.9206 23.4675 6.9206C23.4111 6.9206 23.3647 6.96427 23.3603 7.02138L22.6468 13.6325C22.6092 14.1543 23.0174 14.5989 23.5339 14.5989V14.5977Z" fill="#F2EFE8"/>
<path d="M60.9744 41.6894L62.7995 22.5705C62.857 21.9636 63.3614 21.5 63.9643 21.5H69.027C69.6298 21.5 70.1342 21.9647 70.1917 22.5716L71.9947 41.6905C72.0599 42.3837 71.5212 42.9839 70.8332 42.9839H69.1597C68.5546 42.9839 68.0491 42.5147 67.9972 41.9044L67.8843 40.5831C67.8324 39.9739 67.3291 39.507 66.7262 39.507H66.3059C65.6964 39.507 65.1898 39.984 65.1456 40.5999L65.0538 41.8876C65.0095 42.5057 64.5018 42.9839 63.8901 42.9839H62.1347C61.4456 42.9839 60.9069 42.3837 60.9733 41.6894H60.9744ZM66.5017 36.0816C67.0238 36.0816 67.433 35.6292 67.3877 35.1029L66.5415 28.503C66.5371 28.447 66.4906 28.4045 66.4353 28.4045C66.3789 28.4045 66.3325 28.4482 66.328 28.5053L65.6146 35.1164C65.577 35.6382 65.9851 36.0827 66.5017 36.0827V36.0816Z" fill="#F2EFE8"/>
<path d="M30.1934 20.3199V1.19399C30.1934 0.543469 30.7196 0.0161133 31.3687 0.0161133H33.3103C33.9594 0.0161133 34.4856 0.543469 34.4856 1.19399V16.6698C34.4856 17.3203 35.0118 17.8477 35.6609 17.8477H37.7277C38.3768 17.8477 38.903 18.375 38.903 19.0256V20.3221C38.903 20.9726 38.3768 21.5 37.7277 21.5H31.3687C30.7196 21.5 30.1934 20.9726 30.1934 20.3221V20.3199Z" fill="#F2EFE8"/>
<path d="M49.1247 1.12414C49.0631 0.495926 48.5238 0.0161133 47.8795 0.0161133H42.7413C42.097 0.0161133 41.5576 0.49481 41.496 1.12303L39.4834 21.3756V37.052C39.4834 39.0126 39.8768 40.4911 40.6636 41.4886C41.4504 42.4851 43.6706 42.9839 45.2898 42.9839C46.9091 42.9839 49.1293 42.4851 49.9161 41.4886C50.7029 40.4922 51.0963 39.0126 51.0963 37.052V21.4258L49.1247 1.12526V1.12414ZM45.2477 6.89528C45.3047 6.89528 45.3526 6.93768 45.3571 6.99348L46.193 13.5714C46.2591 14.0891 45.8463 14.5455 45.3138 14.5455C44.7881 14.5455 44.3776 14.1003 44.4323 13.5881L45.137 6.99459C45.1416 6.93768 45.1895 6.89417 45.2477 6.89417V6.89528ZM45.5031 39.1063C43.6672 39.1063 43.7356 37.5586 43.7356 36.8769L43.7425 24.8983C43.7425 23.297 43.8656 20.59 43.9409 19.0747C43.9717 18.4509 44.4985 17.9611 45.1359 17.9611H45.5441C46.1702 17.9611 46.6913 18.4342 46.7392 19.0457C46.8897 20.9951 46.965 22.9489 46.965 24.9039V36.878C46.965 37.5754 47.1269 39.1074 45.5031 39.1074V39.1063Z" fill="#F2EFE8"/>
<path d="M53.8277 41.3824L51.6851 22.7743C51.6071 22.0942 52.1597 21.5 52.8694 21.5H54.1802C54.7938 21.5 55.3069 21.9484 55.3668 22.5371L56.2719 31.537C56.3183 32.0028 57.0257 31.9995 57.0675 31.5326L57.871 22.5491C57.9241 21.956 58.4394 21.5 59.0586 21.5H60.3571C61.0667 21.5 61.6193 22.0942 61.5414 22.7743L59.3988 41.3824C59.3321 41.9636 58.8213 42.4032 58.2145 42.4032H55.0131C54.4062 42.4032 53.8955 41.9636 53.8288 41.3824H53.8277Z" fill="#F2EFE8"/>
</svg>
