<svg width="112" height="84" viewBox="0 0 112 84" fill="none" xmlns="http://www.w3.org/2000/svg">
<g clip-path="url(#clip0_347_39598)">
<path d="M91.9686 58.6997L91.7129 58.5401C91.7061 58.5925 91.7672 58.6477 91.9686 58.6997Z" fill="#74235B"/>
<path d="M28.6311 30.1253C28.6311 30.1253 28.5828 30.1161 28.5617 30.1158C28.6077 30.1294 28.6224 30.1317 28.6311 30.1253Z" fill="#74235B"/>
<path d="M82.8233 52.2226C82.8233 52.2226 82.8315 52.227 82.8356 52.2292C82.8589 52.2251 82.8882 52.2297 82.9116 52.2255L82.8233 52.2226Z" fill="#74235B"/>
<path d="M95.8557 55.6708C94.9866 55.541 94.2791 55.4081 93.6633 55.2236C93.0429 55.0477 92.5053 54.9163 91.9662 54.728C91.4266 54.5507 90.8799 54.3864 90.2478 54.2323C89.615 54.0498 88.8901 53.8796 87.9912 53.7058C86.3188 53.1843 84.4887 52.7576 82.8398 52.2319C81.9178 52.3596 80.7034 51.4614 79.6613 51.4351L79.398 51.0807C79.0398 51.0624 78.6418 50.989 78.3773 50.7462L78.4225 50.6919C77.886 50.6677 77.4017 50.3574 77.1326 50.342L77.1778 50.2877L76.5973 50.0772L76.7356 50.0281C75.8492 49.8609 75.003 49.5192 74.3023 49.1152L74.2478 49.4056C72.8035 48.4289 71.9826 48.7062 70.7171 47.7245L70.7663 47.6724C68.6489 47.5626 68.1461 45.9246 66.0011 45.7271C66.2697 45.7535 65.9629 45.5496 66.0145 45.4932C65.1308 45.1817 64.2083 44.7934 63.9545 45.2964C63.3399 45.0003 63.5275 44.8991 63.541 44.6652C63.4366 44.8896 62.8599 44.7316 62.3708 44.5197L62.6335 44.5373L61.2185 43.9632L61.2876 44.5106C60.6154 44.0434 61.3463 43.914 60.601 43.6824L60.4437 44.0354C59.4678 43.4782 59.133 42.6705 58.2865 41.9416C54.3239 39.8326 49.5568 38.5368 46.1659 35.9886L46.1357 35.6472C46.2597 35.2371 44.8213 35.671 44.8632 35.2449L44.3432 35.1902C44.2581 35.0605 44.0387 34.853 44.3008 34.8815C43.9102 34.6551 43.8692 34.7116 43.5226 34.6715L43.2198 34.2119C41.7494 33.2043 40.1862 32.9264 38.5938 31.9375C36.8838 30.3921 32.9639 28.7602 30.7138 27.7941C27.4254 26.6356 24.8506 23.1626 21.4941 21.9619C21.4251 21.852 21.1039 21.8143 21.0829 21.8535L18.3808 20.1291C18.3808 20.1291 15.101 18.0499 12.8638 17.0795C10.6237 16.1245 9.36929 16.3151 13.4451 20.9971L13.3309 21.0311C14.7105 22.1582 15.632 22.7871 16.9077 23.0341C16.7728 23.6234 18.118 23.8404 18.3696 24.2165L18.3113 24.2357C19.4604 24.4204 20.0185 25.7067 21.1116 25.9063C21.0533 25.9255 20.9561 26.0471 20.7448 25.9338C21.4345 26.2589 22.3873 26.6804 22.2657 26.9965C23.8604 27.852 25.9637 29.2607 27.2304 29.3852L27.118 29.4258C27.8691 29.4475 27.8812 29.8128 28.6104 30.0246C28.6225 30.0815 28.6564 30.1277 28.6411 30.1364C29.4419 30.1847 30.4884 31.1274 31.0692 31.2876L30.9931 31.4991L32.2634 32.1638L31.8193 31.8582C32.2759 31.4247 32.5762 32.7242 33.6733 32.8865C34.4863 33.4293 36.0005 32.7444 36.7398 33.4943C37.2995 33.475 36.1456 33.697 36.8821 33.8454C36.7492 34.133 36.4904 33.8596 36.5328 34.1683C37.2219 34.3754 37.3952 35.0067 38.2596 35.2349L38.1718 35.4682C39.3844 35.614 39.8994 36.7819 40.7718 36.7565C41.9013 37.1269 41.1201 37.7677 42.426 37.9187L42.6878 38.4349C43.1219 38.7294 43.2089 38.249 43.6436 38.6617C43.5142 38.8333 44.215 39.1477 43.821 39.1662C44.8336 40.0627 46.3972 39.9819 47.6757 41.2678C48.195 41.0753 48.8602 41.6846 49.2477 41.5392C49.2091 41.7204 50.789 42.3549 49.7442 42.2542C49.6533 42.2446 49.5272 42.1714 49.5682 42.1149L49.3543 42.2749C50.0292 43.1248 51.0638 42.8668 51.9025 43.3616C51.6784 43.1629 51.3224 43.0111 51.6302 42.9744L52.4296 43.4032L52.1676 43.5038L53.3254 44.2091L53.2724 43.9003C53.8051 44.3094 53.826 44.7973 54.652 44.8086C55.0401 44.7813 54.2424 44.23 54.9003 44.4652C55.6131 45.0158 56.6941 45.8145 57.6742 46.3739C57.7015 46.0745 57.973 46.2146 58.2791 46.3003L58.2061 46.5359C59.4326 46.7453 58.362 47.2196 59.554 47.4834L59.383 47.5934L59.8897 47.2653C61.0704 47.2819 60.1933 47.9721 61.5556 47.8787C61.1111 47.7131 61.5861 47.295 62.0646 47.6358L61.8277 47.7891C62.1421 47.8793 62.2781 47.8345 62.45 47.9715C62.223 48.0068 62.2095 48.2407 62.6541 48.4063L62.2419 48.5384L63.237 48.5228C63.7538 49.0411 64.8803 49.2081 64.9959 49.629C64.9959 49.629 66.2698 50.3965 66.736 50.2036C66.3706 50.288 67.075 50.7051 66.7513 50.8511C67.2052 50.7806 68.3312 51.0482 68.6309 51.4838L68.54 51.4743C69.9564 52.4136 71.3091 52.2982 72.559 53.2098C72.6111 52.9238 73.2815 53.3844 73.2485 52.9685C74.8264 53.2487 75.5858 54.7664 76.5506 53.9326C77.2331 54.1417 77.2309 54.4938 77.5511 54.6824L77.3688 54.6743C78.6472 55.0854 79.0218 55.2023 79.9384 55.5819C80.445 55.6518 80.7055 55.1859 81.4972 55.5994C81.1567 55.6972 81.5094 55.7854 81.825 55.8931C81.6124 55.8519 81.5272 55.9015 81.8898 56.1801C81.9704 56.1393 82.0747 56.1336 82.1703 56.1344C82.1675 56.1497 82.1794 56.1673 82.1635 56.1868C82.7146 56.303 82.6451 56.204 82.4102 56.0949C82.4349 56.0688 82.4264 56.025 82.3687 55.9436C82.8277 56.3805 83.907 56.4269 83.8577 56.7873C84.6666 57.0194 85.398 57.0978 86.0911 57.178C86.7818 57.2626 87.447 57.3054 88.1413 57.4032C88.2434 57.6205 87.8828 57.6962 87.4678 57.6643L88.4493 57.8432C88.3711 58.0984 87.8541 57.8491 87.5407 57.8267C88.0594 58.1723 88.6833 58.2323 89.3319 58.2662C89.9851 58.2914 90.662 58.3125 91.3045 58.646C91.4152 58.5988 91.5217 58.5494 91.6347 58.4978L91.7134 58.5401C91.7311 58.4374 92.0715 58.3397 92.2798 58.3393C92.4311 58.5943 92.1611 58.8588 92.8513 58.9543C93.1011 59.1051 93.4943 59.1478 93.9178 59.1339C94.3419 59.1091 94.7911 59.0473 95.1556 59.0241C94.7728 58.9422 94.9185 58.8297 95.0957 58.7677C95.4405 58.8013 95.6093 59.0433 95.8886 58.98L95.8821 59.2906C95.8323 59.1348 96.068 59.0931 96.3356 59.0516C96.6033 59.0102 96.9017 58.9908 96.9727 58.928C97.1481 59.1679 96.4143 59.0939 96.3043 59.2591C97.7105 59.3126 97.0065 59.2826 98.4127 59.336C99.1755 59.1172 98.2949 59.0485 98.6711 58.7849C99.3327 58.7249 99.9722 58.5073 100.722 58.6908L100.489 58.4198C101.099 58.3265 101.587 58.2126 102.024 58.2119C102.463 58.2003 102.851 58.2517 103.271 58.3537C103.834 58.1397 104.326 57.9383 104.752 57.7517C105.181 57.5672 105.551 57.3954 105.862 57.2034C106.485 56.8369 106.893 56.5341 107.149 56.2848C107.658 55.7839 107.547 55.4943 107.196 55.3229C106.845 55.1515 106.259 55.1006 105.762 55.0921C105.514 55.0878 105.288 55.1012 105.12 55.0954C104.955 55.0962 104.851 55.0909 104.851 55.0909C104.435 55.0699 104.047 55.0688 103.676 55.0831C103.31 55.0997 102.962 55.1318 102.622 55.1398C101.94 55.1668 101.303 55.2905 100.636 55.3701C99.9701 55.4388 99.2776 55.5664 98.501 55.632C98.1129 55.6593 97.7018 55.6799 97.2612 55.6958C97.0441 55.7027 96.8141 55.7139 96.5805 55.7119C96.3473 55.699 96.1013 55.6904 95.8534 55.6751L95.8557 55.6708Z" fill="#2C3538"/>
<path d="M15.1347 14.6252L15.2217 14.7336C15.2177 14.681 15.1984 14.6369 15.1347 14.6252Z" fill="#74235B"/>
<path d="M35.4892 12.798C35.4892 12.798 35.4983 12.7811 35.5052 12.7683C35.4941 12.7788 35.4895 12.7872 35.4892 12.798Z" fill="#74235B"/>
<path d="M14.308 18.2247C15.3896 18.2666 15.7009 18.7701 16.806 18.4601C17.3417 18.4559 17.9024 18.2857 18.4198 18.1764C18.6511 17.7453 19.1009 18.11 19.3802 17.7384L19.5054 17.9625C19.6008 17.8343 19.7177 17.7456 19.8204 17.8624L19.8173 17.928C19.9625 17.7367 20.1323 17.8278 20.205 17.7322L20.1995 17.8022L20.3803 17.7534L20.3543 17.8516C20.611 17.6416 20.8763 17.6045 21.1197 17.6678L21.0886 17.3876C21.6111 17.6567 21.7741 17.0544 22.2486 17.3931L22.243 17.463C22.7938 16.665 23.1828 17.8887 23.7509 17.128C23.6783 17.2237 23.7907 17.2727 23.7875 17.3383C24.0583 17.2312 24.3547 17.166 24.3328 16.6103C24.5351 16.601 24.5035 16.7692 24.5378 16.9838C24.524 16.7409 24.6975 16.6265 24.8519 16.5972L24.7834 16.695L25.2293 16.5698L25.1194 16.1183C25.3649 16.2275 25.2051 16.6745 25.4262 16.5408L25.4064 16.1601C25.74 16.2045 25.9572 16.764 26.289 17.0205C27.6232 17.069 29.0066 15.9719 30.2692 16.5315L30.3363 16.8142C30.3798 17.2301 30.6525 16.1652 30.7147 16.5462L30.8499 16.344C30.8933 16.4122 30.9811 16.4873 30.9167 16.5873C31.0483 16.5906 31.0515 16.525 31.141 16.388L31.2969 16.6343C31.8311 16.7919 32.2547 16.2509 32.809 16.3015C33.4936 16.7754 34.721 16.1778 35.4241 15.8316C36.4084 15.1204 37.6524 16.6794 38.6562 15.8721C38.6895 15.9293 38.7749 15.79 38.7711 15.7375L39.7179 15.7127C39.7179 15.7127 44.313 15.4695 40.6774 12.3135L40.6946 12.2218C40.1656 12.0445 39.8392 12.0264 39.5009 12.5178C39.4218 11.9595 39.0748 12.4967 38.9429 12.325L38.9515 12.2792C38.6531 12.7359 38.2862 11.9783 37.9964 12.3892C38.005 12.3433 38.0083 12.1881 38.0748 12.1733C37.8559 12.2633 37.5552 12.416 37.5263 12.0921C37.0014 12.2255 36.2534 12.1382 35.9355 12.691L35.9527 12.5993C35.7754 12.9696 35.7047 12.6737 35.4975 12.871C35.4826 12.8293 35.4665 12.8095 35.4717 12.7899C35.2755 13.1556 34.8587 12.8984 34.6956 13.0632L34.6744 12.8443L34.2578 12.9349L34.4155 12.969C34.3863 13.5702 34.0838 12.6228 33.794 13.0337C33.5052 12.9853 33.2683 14.3218 32.9624 14.0568C32.8336 14.3465 33.0679 13.5918 32.8674 13.8263C32.8462 13.5178 32.9559 13.6215 32.8932 13.3804C32.6918 13.5471 32.5418 13.0909 32.2924 13.3272L32.2722 13.0864C31.9603 13.5584 31.6306 12.8207 31.4242 13.2652C31.088 13.4941 31.1649 12.5653 30.8237 13.072L30.6733 12.7558C30.5179 12.7173 30.5811 13.1662 30.4033 13.0203C30.4028 12.8125 30.1831 12.8741 30.2716 12.6693C29.8712 12.3816 29.5087 13.1964 28.9827 12.6955C28.8905 13.1059 28.6268 12.8915 28.5566 13.2015C28.5373 13.0286 28.0457 13.219 28.3161 12.8145C28.3389 12.7819 28.3814 12.7823 28.3824 12.8501L28.4046 12.6097C28.0979 12.1872 27.8888 12.905 27.6042 12.8588C27.6943 12.9296 27.8062 12.8999 27.7364 13.0699L27.4691 13.0611L27.5151 12.8559L27.1153 12.7759L27.1821 13.0193C26.9833 12.9126 26.8996 12.492 26.6945 12.8642C26.606 13.069 26.8915 13.183 26.6915 13.2775C26.4222 13.1331 26.0293 12.9111 25.6957 12.8667C25.7397 13.1426 25.6506 13.1397 25.5625 13.2046L25.5423 12.9638C25.2056 13.3327 25.3913 12.4398 25.0537 12.741L25.077 12.5684L25.0072 13.0861C24.7127 13.5954 24.8163 12.5968 24.4962 13.283C24.6328 13.2273 24.5853 13.813 24.4113 13.7197L24.4442 13.4794C24.3543 13.5377 24.3259 13.6402 24.2602 13.5937C24.309 13.4629 24.2748 13.2483 24.1382 13.304L24.2186 13.0051L23.9756 13.4579C23.7638 13.2265 23.4582 13.5673 23.3633 13.2472C23.3633 13.2472 22.9231 13.1231 22.8413 13.4942C22.9185 13.2609 22.6751 13.1976 22.735 12.9269C22.6349 13.1929 22.3112 13.4285 22.1664 13.1714L22.1851 13.1366C21.6865 12.9027 21.3663 13.5889 20.911 13.2942C20.9421 13.5744 20.7042 13.4411 20.7763 13.7939C20.3342 14.1903 19.9137 13.1348 19.7995 14.2624C19.5917 14.3415 19.5433 14.024 19.431 13.9749L19.4766 13.9097C19.0944 14.0355 18.9807 14.0586 18.6898 14.0539C18.5501 14.1752 18.5505 14.6914 18.2857 14.5885C18.3618 14.377 18.2576 14.4221 18.1615 14.4322C18.2185 14.3955 18.2393 14.3169 18.1053 14.189C18.0915 14.2544 18.064 14.2958 18.0412 14.3284C18.0399 14.3109 18.0339 14.3021 18.035 14.2802C17.8756 14.3685 17.9066 14.43 17.9822 14.4482C17.9806 14.481 17.9873 14.5182 18.0142 14.5775C17.8352 14.3244 17.5502 14.637 17.5141 14.2867C17.0322 14.4095 16.7028 14.8047 16.3055 14.9785C16.2526 14.7987 16.3414 14.6333 16.4536 14.5533L16.1709 14.6428C16.1624 14.3803 16.3275 14.4801 16.4133 14.4196C16.0542 14.025 15.7269 14.9036 15.3126 14.5524L15.2406 14.7661L15.2145 14.7353C15.2198 14.8447 15.1357 15.0014 15.0787 15.0381C15.0108 14.8167 15.0616 14.5131 14.8624 14.5464C14.6961 14.3394 14.4237 14.698 14.2215 14.8362C14.3349 14.8634 14.3032 14.9922 14.2565 15.0793C14.158 15.0937 14.0902 14.8723 14.017 14.9788L13.9935 14.6746C14.0434 14.9594 13.7499 15.0094 13.7182 15.1381C13.6503 14.9167 13.8621 14.9294 13.8812 14.7546C13.4851 14.8169 13.682 14.7879 13.2859 14.8502C13.0825 15.0999 13.3358 15.1349 13.2501 15.4141C13.0658 15.4891 12.893 15.7216 12.6715 15.5579L12.752 15.8254C12.4088 16.0675 12.1969 16.0547 11.9501 15.7989C9.4302 18.2489 11.5287 18.8813 11.5287 18.8813C12.5834 19.391 13.0808 18.5532 14.2968 18.2355L14.308 18.2247Z" fill="#2C3538"/>
<path d="M13.2207 19.9629L13.1553 20.0848C13.1974 20.0569 13.2333 20.0201 13.2207 19.9629Z" fill="#74235B"/>
<path d="M21.2591 38.0191C21.2591 38.0191 21.2757 38.028 21.2885 38.0239C21.2761 38.0173 21.2678 38.0128 21.2591 38.0191Z" fill="#74235B"/>
<path d="M11.0456 24.4481C11.0304 24.4455 11.0261 24.4433 11.011 24.4407L11.0499 24.4504L11.0456 24.4481Z" fill="#74235B"/>
<path d="M9.70628 20.668C10.0074 21.6875 9.65024 22.1744 10.2782 23.072C10.452 23.5634 10.7807 24.0145 11.0444 24.4476C11.5101 24.4844 11.3191 25.0492 11.7409 25.1577L11.5781 25.3619C11.7228 25.4003 11.8406 25.4691 11.7676 25.615L11.707 25.6386C11.9232 25.6929 11.8966 25.8917 12.0059 25.9167L11.9452 25.9402L12.0422 26.0876L11.9438 26.1021C12.2171 26.2487 12.3311 26.4837 12.3508 26.7354L12.5937 26.5909C12.5096 27.1851 13.1073 27.0851 12.9518 27.6634L12.8911 27.6869C13.7853 27.8695 12.8001 28.7316 13.6673 28.9445C13.5581 28.9195 13.5481 29.0375 13.4874 29.0611C13.6685 29.2704 13.8203 29.5144 14.321 29.2671C14.3928 29.4515 14.2296 29.4873 14.0474 29.6082C14.2651 29.5007 14.4214 29.607 14.4977 29.7432L14.3861 29.7226L14.6341 30.0856L15.0089 29.8044C14.9851 30.0776 14.531 30.1087 14.7212 30.2613L15.0589 30.0892C15.1238 30.4156 14.6843 30.8471 14.5561 31.255C14.9311 32.5047 16.3569 33.337 16.2466 34.7357L16.0128 34.9131C15.6499 35.1221 16.6979 34.9386 16.3728 35.1567L16.6002 35.2002C16.5481 35.2675 16.5127 35.3831 16.3969 35.3603C16.4354 35.4875 16.4984 35.4596 16.6478 35.4893L16.4704 35.7305C16.4964 36.2884 17.1192 36.4599 17.2443 36.9924C17.0322 37.8151 17.9557 38.7087 18.4942 39.2163C19.4481 39.8346 18.4266 41.6193 19.4706 42.2186C19.4296 42.2751 19.586 42.2918 19.6254 42.268L19.9446 43.1346C19.9446 43.1346 21.6051 47.2778 23.3218 42.6362L23.412 42.6172C23.4072 42.0595 23.3182 41.7482 22.7712 41.6342C23.2469 41.3342 22.6569 41.2308 22.768 41.0437L22.811 41.0331C22.3031 40.9457 22.8765 40.2945 22.4117 40.1965C22.4547 40.1859 22.5959 40.1215 22.6334 40.1809C22.4821 40.0155 22.2544 39.8037 22.5385 39.642C22.2535 39.2088 22.0973 38.4857 21.4993 38.4173L21.5894 38.3983C21.197 38.3841 21.4462 38.1981 21.2007 38.0889C21.2318 38.0607 21.25 38.0368 21.2653 38.0282C20.8716 37.9964 20.9739 37.5074 20.7741 37.4226L20.964 37.317L20.7515 36.9675L20.7713 37.1295C20.2167 37.3479 20.98 36.6807 20.5152 36.5827C20.4717 36.2959 19.1809 36.6239 19.3274 36.2315C19.0236 36.2311 19.7823 36.1391 19.5063 36.0471C19.7811 35.9029 19.7187 36.0489 19.9178 35.8866C19.7025 35.771 20.0647 35.4439 19.7801 35.308L19.9919 35.1917C19.4675 35.0954 20.0323 34.49 19.5674 34.4817C19.2547 34.2691 20.1155 33.9571 19.5533 33.8517L19.7895 33.5804C19.7781 33.4228 19.3882 33.6623 19.4649 33.4398C19.6538 33.3561 19.5266 33.1757 19.739 33.1775C19.8773 32.691 19.0254 32.6881 19.3118 31.9951C18.9105 32.077 19.0243 31.7455 18.7196 31.8064C18.8684 31.718 18.5425 31.3412 18.9931 31.426C19.0309 31.435 19.0417 31.4745 18.9787 31.5024L19.2055 31.4278C19.4932 30.9709 18.7764 31.0742 18.7264 30.7895C18.6893 30.8985 18.7529 30.9887 18.5783 30.996L18.5032 30.7482L18.7006 30.7083L18.65 30.3055L18.4509 30.4678C18.4874 30.2407 18.8395 29.9922 18.4375 29.9559C18.2251 29.9541 18.2121 30.2668 18.062 30.119C18.1128 29.8154 18.1882 29.3568 18.1233 29.0304C17.8864 29.1836 17.8629 29.0981 17.7741 29.0449L17.9858 28.9286C17.5496 28.7674 18.411 28.5735 18.0354 28.3888L18.1992 28.3421L17.7097 28.4888C17.1583 28.4229 18.0911 28.1159 17.3695 28.0989C17.458 28.2024 16.9174 28.3946 16.9482 28.1981L17.1744 28.1344C17.0944 28.0747 16.996 28.0891 17.0103 28.0127C17.1466 28.0073 17.3247 27.8841 17.2362 27.7806L17.5339 27.7328L17.0469 27.6959C17.1928 27.4041 16.7832 27.2628 17.0469 27.0398C17.0469 27.0398 17.0202 26.5825 16.6595 26.6581C16.8966 26.6339 16.8746 26.3866 17.1368 26.3254C16.8684 26.3384 16.5487 26.1389 16.7409 25.8999L16.7787 25.909C16.8335 25.3496 16.1118 25.3325 16.2357 24.7934C15.9929 24.9379 16.0403 24.6605 15.7388 24.8745C15.2407 24.6297 16.0645 23.81 15.0063 24.1619C14.8715 24.0054 15.1437 23.8262 15.1495 23.706L15.221 23.7219C14.9892 23.4181 14.9344 23.3214 14.8433 23.0538C14.69 22.9716 14.2186 23.1841 14.2324 22.8999C14.45 22.8821 14.3729 22.8071 14.3347 22.7193C14.388 22.7591 14.461 22.7422 14.5374 22.5701C14.4731 22.5805 14.4288 22.5736 14.3887 22.5688C14.404 22.5602 14.411 22.5472 14.4346 22.543C14.3083 22.4304 14.2632 22.4847 14.2636 22.5634C14.2353 22.5763 14.2024 22.5979 14.1578 22.6412C14.328 22.3737 13.9586 22.2371 14.2667 22.0604C14.0032 21.6667 13.5428 21.5207 13.2639 21.2252C13.4078 21.1062 13.5902 21.1143 13.695 21.1873L13.5232 20.9606C13.7562 20.8445 13.7213 21.0388 13.8036 21.0942C14.0463 20.602 13.1511 20.66 13.3382 20.1323L13.1206 20.1502L13.1416 20.111C13.0457 20.1605 12.8763 20.1481 12.8206 20.1126C13.0021 19.9633 13.2908 19.8826 13.2013 19.7113C13.334 19.474 12.9269 19.3678 12.7397 19.2393C12.7469 19.3553 12.6225 19.3783 12.5334 19.3754C12.4887 19.2897 12.666 19.1381 12.5503 19.1153L12.8209 18.9688C12.5793 19.1308 12.4428 18.8782 12.3119 18.9033C12.4934 18.7539 12.5476 18.9512 12.7096 18.8979C12.5283 18.5596 12.6201 18.7266 12.4389 18.3882C12.1476 18.3048 12.1973 18.5502 11.9131 18.5828C11.7861 18.4417 11.5238 18.3739 11.6049 18.1034L11.39 18.2853C11.0625 18.0704 11.0107 17.8687 11.1628 17.5354C8.15673 16.2087 8.2437 18.403 8.2437 18.403C8.10978 19.5872 9.02842 19.7043 9.69641 20.6964L9.70628 20.668Z" fill="#2C3538"/>
</g>
<defs>
<clipPath id="clip0_347_39598">
<rect width="106.263" height="37.8702" fill="white" transform="translate(17.9033) rotate(28.2129)"/>
</clipPath>
</defs>
</svg>
