<svg width="76" height="78" viewBox="0 0 76 78" fill="none" xmlns="http://www.w3.org/2000/svg">
<g clip-path="url(#clip0_347_39570)">
<path d="M12.9209 71.1706L13.1731 71.2241C13.1537 71.1647 13.0858 71.129 12.9209 71.1706Z" fill="#74235B"/>
<path d="M55.6639 23.0202C55.6639 23.0202 55.673 22.9726 55.673 22.9489C55.6593 22.9964 55.6593 23.0142 55.6639 23.0202Z" fill="#74235B"/>
<path d="M22.9687 71.2717C22.9687 71.2717 22.9592 71.2717 22.9592 71.2776C22.9448 71.3014 22.9256 71.3252 22.916 71.343L22.9735 71.2657L22.9687 71.2717Z" fill="#74235B"/>
<path d="M10.9174 76.1634C11.7371 75.997 12.4161 75.8781 13.0175 75.7592C13.6237 75.6582 14.1572 75.569 14.6859 75.4442C15.2194 75.3313 15.7577 75.2005 16.3543 74.9687C16.655 74.8558 16.9702 74.7309 17.3146 74.5764C17.6541 74.41 18.0178 74.2198 18.4155 73.9998C19.9821 73.3044 21.5535 72.2821 22.9552 71.2717C23.445 70.4098 24.8224 70.0116 25.4141 69.0665L25.8361 69.0784C26.0398 68.7515 26.3065 68.4365 26.6412 68.3533L26.6606 68.4365C26.9516 67.9372 27.4415 67.6816 27.5821 67.432L27.6064 67.5152C27.7567 67.3785 27.9071 67.2358 28.0526 67.0873L28.0283 67.2537C28.5764 66.4869 29.2408 65.8747 29.8665 65.3992L29.6434 65.1734C31.0693 64.2937 31.1275 63.2892 32.4273 62.5165L32.4564 62.5938C33.2712 60.4837 34.8766 60.7393 35.672 58.552C35.575 58.8254 35.8417 58.5936 35.8805 58.6709C36.4092 57.8744 37.0009 57.0601 36.608 56.5787C37.03 56.0497 37.0688 56.2934 37.2773 56.4004C37.0979 56.1983 37.3889 55.6515 37.6993 55.2176L37.6217 55.491L38.4753 54.2131L37.9612 54.0704C38.5383 53.5414 38.4947 54.3735 38.873 53.6662L38.5868 53.3631C39.3046 52.5369 40.1146 52.4834 40.9536 51.8356C43.6939 48.3287 45.7067 43.6688 48.5924 40.7623L48.9174 40.8337C49.2811 41.0952 49.1017 39.4012 49.4848 39.5676L49.6109 39.0149C49.7467 38.9614 49.9698 38.7831 49.9019 39.0565C50.1687 38.6939 50.1202 38.6345 50.2075 38.2659L50.678 38.0698C51.8226 36.7384 52.2833 35.0979 53.3697 33.5823C54.1942 32.8333 55.0672 31.4366 55.8675 29.9447C56.6483 28.435 57.3613 26.8361 57.8414 25.6355C58.4477 23.8939 59.5438 22.3902 60.6157 20.8091C61.1395 20.0127 61.6875 19.2221 62.124 18.3603C62.5557 17.4984 62.934 16.6128 63.1377 15.6618C63.2347 15.5845 63.2347 15.216 63.191 15.1923C63.6275 14.1462 64.1028 13.1298 64.4957 12.054C64.4957 12.054 64.8643 11.0851 65.2863 9.78343C65.6597 8.45203 66.135 6.8175 66.2708 5.47421C66.4309 4.1428 66.3824 3.17397 65.8731 3.20963C65.6209 3.22746 65.2523 3.49493 64.7479 4.07742C64.2386 4.65991 63.6227 5.56336 62.74 6.79372L62.6818 6.67485C61.9543 8.27966 61.5032 9.27227 61.5032 10.6631C60.9455 10.5621 60.9261 11.9886 60.606 12.2739L60.5817 12.2144C60.572 12.8326 60.281 13.2962 59.99 13.7539C59.6893 14.2056 59.3741 14.6335 59.3353 15.222C59.311 15.1566 59.1849 15.0496 59.2771 14.8297C59.0346 15.5548 58.7193 16.5712 58.4138 16.4226C58.0597 17.2547 57.5795 18.2057 57.177 19.1211C56.755 20.0186 56.4107 20.8864 56.3622 21.5699L56.3234 21.4392C56.3185 22.2594 55.9693 22.2178 55.7656 22.9786C55.7123 22.9786 55.6686 23.0143 55.6589 22.9964C55.5959 23.8523 54.7035 24.8568 54.524 25.4453L54.33 25.3264L53.6559 26.5805L53.9614 26.1585C54.3446 26.741 53.1321 26.8183 52.8993 27.9654C52.3367 28.7203 52.875 30.545 52.099 31.1691C52.0602 31.7813 51.9681 30.4796 51.7547 31.2345C51.4976 31.0205 51.7789 30.8125 51.4879 30.7768C51.2309 31.4722 50.6246 31.496 50.3288 32.3816L50.1202 32.2271C49.8534 33.4991 48.7137 33.7368 48.6361 34.6819C48.1511 35.7933 47.6515 34.7651 47.346 36.1203L46.8367 36.251C46.5118 36.6314 46.9386 36.8692 46.4972 37.2139C46.3614 37.0237 45.9637 37.6716 46.0025 37.2496C45.0277 38.046 44.8725 39.7578 43.4854 40.7029C43.5775 41.321 42.9082 41.8322 42.9761 42.2958C42.8161 42.1948 41.9673 43.6688 42.2341 42.5811C42.2583 42.492 42.3456 42.3731 42.3941 42.4385L42.2825 42.1532C41.3853 42.5811 41.458 43.7818 40.8518 44.5069C41.0749 44.3405 41.2786 44.0136 41.2543 44.3524L40.716 45.0537L40.6723 44.7446L39.8187 45.7313L40.1097 45.7848C39.6393 46.2068 39.1931 46.0523 39.033 46.932C38.9894 47.3599 39.6393 46.7061 39.2998 47.3183C38.6741 47.883 37.7284 48.721 37.03 49.5353C37.2967 49.6839 37.1173 49.9098 36.9766 50.1951L36.7778 50.0227C36.3364 51.2234 36.1327 49.9276 35.6477 51.0569L35.5847 50.837L35.7738 51.4968C35.5022 52.7152 35.0754 51.5265 34.8572 52.9708C35.1045 52.5785 35.3761 53.2502 34.959 53.6009L34.8766 53.2918C34.7262 53.5771 34.731 53.7376 34.571 53.8624C34.5904 53.6127 34.3867 53.4998 34.1393 53.8862L34.1151 53.3988L33.8968 54.427C33.3148 54.7242 32.8832 55.7941 32.4806 55.7109C32.4806 55.7109 32.2284 55.9427 31.9859 56.2458C31.7386 56.543 31.4961 56.9056 31.5155 57.1909C31.5446 56.7808 30.9868 57.28 30.948 56.8818C30.8947 57.3811 30.3224 58.344 29.8665 58.4153L29.9004 58.3261C28.6782 59.1999 28.3387 60.5967 27.1408 61.2148C27.359 61.4407 26.743 61.7914 27.0874 62.0172C26.6848 62.6829 26.0834 62.9147 25.6421 63.1822C25.191 63.4378 24.8806 63.6934 24.997 64.4244C24.5411 64.8999 24.2695 64.6265 23.9834 64.7692L24.0707 64.6206C23.6293 65.0248 23.3432 65.2863 23.0764 65.5003C22.8048 65.7083 22.5526 65.8747 22.1937 66.1125C21.893 66.475 22.087 67.0754 21.3692 67.3607C21.4856 67.004 21.2383 67.218 20.9909 67.3726C21.1316 67.2358 21.1461 67.1229 20.763 67.1824C20.7484 67.2775 20.6951 67.3666 20.6466 67.4439C20.6369 67.426 20.6175 67.4201 20.6126 67.3963C20.2392 67.7351 20.3362 67.7589 20.5399 67.6697C20.5399 67.7113 20.5787 67.7411 20.6611 67.7708C20.1179 67.747 19.4632 68.4959 19.2643 68.1393C18.658 68.5494 18.1488 68.9358 17.6783 69.3518C17.1982 69.7501 16.7374 70.1186 16.2185 70.4514C16.0342 70.3028 16.233 69.9938 16.5192 69.7679C16.2718 69.9105 16.0293 70.0651 15.7723 70.1899C15.6947 69.8927 16.1651 69.8273 16.3785 69.655C15.8547 69.6371 15.4182 69.9403 14.9575 70.2731C14.5016 70.6179 14.0069 70.9329 13.4055 70.9032L13.2357 71.2301L13.163 71.2122C13.1969 71.337 12.9884 71.6105 12.8332 71.6996C12.6149 71.4797 12.7071 71.0815 12.1639 71.2657C11.9214 71.2063 11.6207 71.3311 11.3151 71.5154C11.0047 71.6877 10.6846 71.9136 10.413 72.0622C10.7282 72.0265 10.6555 72.2048 10.5391 72.3356C10.2626 72.4188 10.0541 72.187 9.86009 72.3653L9.77279 72.0027C9.93769 72.3297 9.10348 72.5377 9.02103 72.7101C8.82218 72.4723 9.41874 72.3831 9.45754 72.1573C8.34688 72.4248 8.90463 72.3118 7.78912 72.5555C7.22167 72.9359 7.93948 72.8884 7.69212 73.2628C7.16832 73.4233 6.66392 73.7859 6.02371 73.6254L6.24681 73.9345C5.74726 74.1247 5.33986 74.2317 4.97126 74.2495C4.60265 74.2554 4.268 74.1901 3.9188 74.0474C2.98274 74.4635 2.24069 74.7547 1.66353 75.0638C1.08638 75.3372 0.683828 75.5868 0.412226 75.8186C-0.126127 76.2823 -0.101877 76.6567 0.179425 76.9598C0.460727 77.257 1.00393 77.4829 1.47923 77.6255C1.95454 77.7682 2.35709 77.8098 2.35709 77.8098C2.75964 77.893 3.13794 77.9465 3.5017 77.9822C3.86545 78 4.2098 77.9941 4.54445 77.9762C5.21376 77.9465 5.83941 77.7979 6.47477 77.6315C7.75032 77.2808 9.06468 76.7459 10.898 76.1515L10.9174 76.1634Z" fill="#2C3538"/>
<path d="M60.834 6.60943L60.6982 6.53217C60.7176 6.5916 60.7613 6.62727 60.834 6.60943Z" fill="#74235B"/>
<path d="M38.1253 18.2057C38.1253 18.2057 38.1162 18.2295 38.1162 18.2474C38.1253 18.2295 38.1299 18.2176 38.1253 18.2057Z" fill="#74235B"/>
<path d="M55.8766 4.1131C55.8766 4.1131 55.8858 4.08338 55.8858 4.06555L55.8721 4.1131H55.8766Z" fill="#74235B"/>
<path d="M60.5378 2.09817C59.2961 2.57367 58.7772 2.13977 57.6229 3.01945C57.0166 3.27503 56.4346 3.73864 55.8817 4.10716C55.7653 4.71342 55.1251 4.49945 54.9311 5.05816L54.7177 4.86202C54.6498 5.05222 54.548 5.20675 54.3879 5.12354L54.3685 5.04627C54.2667 5.33157 54.0387 5.3078 53.9902 5.45045L53.9708 5.36724L53.7768 5.50394V5.37912C53.5537 5.73575 53.2579 5.90812 52.9572 5.94378L53.0881 6.25286C52.3994 6.18153 52.4139 6.95422 51.7592 6.7878L51.7398 6.70458C51.376 7.8755 50.5224 6.65109 50.1199 7.78635C50.1684 7.6437 50.0277 7.63775 50.0083 7.56048C49.7319 7.81012 49.4166 8.01815 49.6252 8.64819C49.3972 8.75518 49.3778 8.5412 49.2663 8.31534C49.3584 8.58875 49.2032 8.80273 49.0335 8.90972L49.0771 8.76112L48.6067 9.10586L48.8783 9.57542C48.563 9.55759 48.597 8.9751 48.3836 9.23068L48.5291 9.65863C48.1314 9.75968 47.6997 9.21879 47.2341 9.08209C45.687 9.64674 44.4647 11.5428 42.8303 11.4834L42.6605 11.1921C42.4762 10.7345 42.515 12.0837 42.3162 11.6736L42.2289 11.9708C42.1561 11.9113 42.03 11.8697 42.0737 11.7211C41.9185 11.7806 41.9427 11.8578 41.8845 12.054L41.6275 11.84C40.963 11.9113 40.6575 12.7256 40.0027 12.9277C39.0618 12.7078 37.8542 13.9679 37.1606 14.6989C36.2779 15.9828 34.3185 14.794 33.4406 16.2087C33.3776 16.1611 33.3339 16.3632 33.3533 16.4167L32.2718 16.916C32.2718 16.916 30.972 17.5579 30.3414 18.4495C29.7012 19.3351 29.7885 20.3931 32.3882 21.2609L32.3979 21.3738C33.0526 21.3144 33.4309 21.1776 33.6346 20.4525C33.9208 21.0469 34.1245 20.2623 34.3282 20.399V20.4584C34.5125 19.7927 35.1915 20.4822 35.3758 19.87C35.3758 19.9295 35.434 20.1018 35.3612 20.1553C35.5795 19.9473 35.8656 19.6323 36.0111 19.9889C36.5592 19.5847 37.4419 19.3351 37.6165 18.5505L37.6262 18.6634C37.7038 18.1582 37.8832 18.4613 38.053 18.1344C38.0821 18.176 38.1064 18.1939 38.1112 18.2117C38.2082 17.7005 38.7757 17.8016 38.9066 17.5341L39.0036 17.7719L39.4498 17.4747L39.2558 17.5103C39.0861 16.809 39.7505 17.7481 39.9445 17.1418C40.2889 17.0646 40.1143 15.4181 40.5556 15.5786C40.6041 15.1863 40.5896 16.1611 40.7448 15.7985C40.8709 16.1433 40.7108 16.072 40.866 16.3216C41.0406 16.0363 41.3656 16.488 41.5693 16.1076L41.6711 16.3751C41.8748 15.6856 42.4956 16.3751 42.5781 15.7748C42.8836 15.3528 43.1067 16.4583 43.325 15.7213L43.6063 16.0125C43.7954 15.9887 43.5772 15.4954 43.8245 15.5786C43.8924 15.8164 44.1252 15.644 44.0913 15.9234C44.6442 16.072 44.7897 14.9664 45.5609 15.2993C45.5318 14.7822 45.9052 14.9129 45.8858 14.5206C45.9683 14.7108 46.4678 14.265 46.2932 14.8535C46.2787 14.901 46.2253 14.9189 46.2059 14.8416L46.2593 15.1269C46.754 15.4716 46.7491 14.5503 47.0983 14.4731C46.9722 14.4315 46.8558 14.5206 46.8801 14.2888L47.1905 14.1759L47.205 14.4315L47.69 14.3423L47.5348 14.0927C47.8016 14.1283 48.0344 14.5682 48.1459 14.0451C48.1799 13.7658 47.8161 13.7717 48.015 13.5696C48.369 13.6172 48.8977 13.6826 49.2954 13.5815C49.1547 13.2843 49.2566 13.2427 49.339 13.1298L49.4409 13.3973C49.7028 12.8207 49.7852 13.9263 50.0714 13.427L50.1005 13.635L50.0132 13.0109C50.1829 12.2917 50.3915 13.4805 50.5321 12.5473C50.3915 12.6721 50.2557 11.9826 50.4885 12.0064L50.5273 12.2977C50.6146 12.1907 50.6097 12.0599 50.7019 12.0777C50.6873 12.2501 50.7989 12.476 50.9347 12.3571L50.9444 12.7375L51.0753 12.1015C51.3954 12.2739 51.6331 11.733 51.8513 12.0599C51.8513 12.0599 52.3994 12.0005 52.3703 11.5309C52.3606 11.834 52.6564 11.7924 52.6807 12.1312C52.7098 11.7806 53.0008 11.3585 53.253 11.5904L53.2385 11.6379C53.8932 11.6736 54.0339 10.7345 54.6547 10.8652C54.5237 10.5621 54.8438 10.5977 54.6401 10.2292C55.0136 9.56948 55.8478 10.5799 55.6101 9.23663C55.8187 9.05237 55.9836 9.39116 56.1242 9.39711L56.0903 9.49221C56.488 9.1653 56.6092 9.08803 56.9439 8.95727C57.0651 8.75518 56.8905 8.1608 57.2252 8.14892C57.2106 8.42827 57.3125 8.32723 57.424 8.26779C57.3658 8.33912 57.3755 8.43422 57.5695 8.51743C57.5695 8.43422 57.5792 8.37478 57.5986 8.32723C57.6083 8.34506 57.618 8.35695 57.6229 8.38072C57.7732 8.20835 57.7199 8.14892 57.6229 8.1608C57.6132 8.12514 57.5938 8.08354 57.5453 8.03004C57.8363 8.23213 58.0594 7.74474 58.2194 8.13109C58.7287 7.76257 58.976 7.15036 59.3737 6.76402C59.495 6.94233 59.4513 7.17414 59.3495 7.32273L59.6453 7.08498C59.7423 7.38217 59.5192 7.34651 59.4416 7.45944C59.9848 7.7388 60.0624 6.57976 60.659 6.78185L60.6687 6.50249L60.7075 6.52627C60.6639 6.40145 60.7075 6.18747 60.756 6.11021C60.9064 6.33013 60.9549 6.69864 61.1731 6.56788C61.435 6.72241 61.6242 6.18153 61.8036 5.92595C61.663 5.94972 61.6533 5.7833 61.6775 5.67037C61.7842 5.60499 61.9394 5.82491 61.9831 5.67037L62.114 6.00916C61.954 5.70603 62.2789 5.50989 62.2692 5.34346C62.4244 5.56338 62.1771 5.65254 62.2159 5.86057C62.6475 5.5931 62.4293 5.72386 62.8609 5.45639C63.0064 5.07005 62.7009 5.15326 62.7057 4.79069C62.89 4.61238 63.0064 4.2617 63.3168 4.33896L63.1325 4.07744C63.4381 3.63166 63.6806 3.5425 64.054 3.70298C65.0434 1.65833 64.8543 0.748932 64.4469 0.332869C64.0395 -0.0831947 63.4041 1.79675e-05 63.4041 1.79675e-05C62.0607 -0.0534759 61.7988 1.14122 60.5329 2.09222L60.5378 2.09817Z" fill="#2C3538"/>
<path d="M67.2406 7.51294L67.1484 7.6437C67.1969 7.63181 67.2406 7.59615 67.2406 7.51294Z" fill="#74235B"/>
<path d="M73.4443 33.2316C73.4443 33.2316 73.4628 33.2432 73.472 33.2432C73.4582 33.2316 73.4489 33.2316 73.4443 33.2316Z" fill="#74235B"/>
<path d="M64.2178 12.5764C64.2178 12.5764 64.1994 12.559 64.1855 12.5532L64.2178 12.5764Z" fill="#74235B"/>
<path d="M63.6132 6.97798C63.6908 8.46987 63.2349 8.98698 63.7005 10.4373C63.7781 11.1683 64.0352 11.8935 64.2243 12.5711C64.6851 12.785 64.4038 13.4805 64.8112 13.7717L64.6123 13.9857C64.753 14.0867 64.8597 14.2175 64.7675 14.3899L64.6996 14.4017C64.9082 14.5503 64.8548 14.8059 64.9567 14.8772L64.8888 14.8891L64.9664 15.1209L64.8645 15.1091C65.1119 15.4003 65.1992 15.751 65.1846 16.0898L65.4514 15.9768C65.2865 16.7436 65.9024 16.809 65.6696 17.5282L65.6017 17.5401C66.4796 18.069 65.3738 18.9071 66.2322 19.4658C66.1255 19.3945 66.1013 19.555 66.0334 19.5669C66.1886 19.8997 66.3195 20.2742 66.853 20.0959C66.9064 20.3574 66.7367 20.3693 66.5378 20.4703C66.7706 20.3871 66.921 20.5833 66.984 20.7794L66.8725 20.72L67.0859 21.2787L67.4981 21.0112C67.4448 21.3619 66.9792 21.2787 67.1586 21.5402L67.5224 21.4094C67.5515 21.8612 67.0616 22.307 66.8967 22.8241C67.1634 24.6131 68.5603 26.0931 68.3614 27.9357L68.1092 28.12C67.7261 28.3161 68.8173 28.3161 68.4681 28.5301L68.7009 28.6371C68.6476 28.7203 68.5991 28.8629 68.4875 28.8035C68.5215 28.9818 68.5845 28.958 68.7397 29.0293L68.5457 29.3146C68.5506 30.0695 69.1859 30.438 69.3072 31.1869C69.0695 32.2628 70.025 33.6595 70.6021 34.4263C71.1017 34.9196 71.1114 35.722 71.1453 36.5482C71.1793 37.3684 71.2569 38.2125 71.8486 38.6642C71.8146 38.7415 71.9795 38.7771 72.0232 38.7474C72.1881 39.1575 72.3336 39.5617 72.5179 39.9718C72.5179 39.9718 72.6779 40.3403 72.9641 40.7861C73.1144 41.012 73.2842 41.2497 73.4782 41.4756C73.6867 41.7014 73.9098 41.8976 74.1232 42.0402C74.6083 42.3255 75.0351 42.3196 75.297 41.8263C75.5686 41.327 75.6898 40.4354 75.9226 39.0149L76.0099 38.9733C75.9081 38.3313 75.7965 37.9866 75.2194 37.8915C75.6704 37.4933 75.0545 37.3982 75.1563 37.1545L75.2 37.1426C74.6616 37.0534 75.2 36.2272 74.7198 36.0965C74.7635 36.0846 74.9041 36.0073 74.9478 36.0787C74.7829 35.8706 74.5258 35.5972 74.8168 35.4011C74.5015 34.8423 74.3221 33.9092 73.7061 33.7546L73.7983 33.7368C73.3957 33.6774 73.6431 33.4693 73.3909 33.291C73.4248 33.2554 73.4394 33.2256 73.4588 33.2197C73.0514 33.1305 73.1581 32.5005 72.9495 32.3638L73.1435 32.2509L72.9301 31.7635L72.9495 31.9775C72.3772 32.1795 73.1726 31.4247 72.6925 31.2226C72.6488 30.8481 71.3199 31.0502 71.4751 30.5569C71.1599 30.5034 71.9456 30.5153 71.6643 30.3489C71.9504 30.2062 71.8825 30.3905 72.0959 30.2122C71.8825 30.016 72.2608 29.6594 71.9747 29.4335L72.1978 29.3206C71.6643 29.0888 72.2705 28.4112 71.7904 28.3102C71.4751 27.9654 72.3869 27.7336 71.8146 27.478L72.0765 27.1749C72.0765 26.9669 71.6594 27.1987 71.7516 26.9253C71.9504 26.8539 71.834 26.5924 72.0523 26.64C72.222 26.0396 71.3539 25.8435 71.6982 25.0054C71.2811 25.0173 71.4218 24.6072 71.1114 24.6191C71.2714 24.5359 70.9707 23.9653 71.4266 24.1852C71.4654 24.203 71.4703 24.2624 71.4072 24.2803L71.6449 24.2327C71.9795 23.7037 71.2423 23.6681 71.2132 23.2817C71.1647 23.4184 71.2229 23.5492 71.0435 23.5135L70.9901 23.1688H71.1987L71.1841 22.6279L70.9659 22.7884C71.0241 22.4972 71.4072 22.2653 71.0047 22.1167C70.7864 22.0633 70.7428 22.4674 70.607 22.2356C70.6846 21.8493 70.8107 21.2727 70.7816 20.827C70.5245 20.9637 70.5051 20.8448 70.4227 20.7497L70.6506 20.6546C70.2238 20.3277 71.1211 20.3098 70.7622 19.9651L70.9319 19.9473L70.4178 20.0008C69.8649 19.763 70.8495 19.6204 70.1171 19.3945C70.1996 19.555 69.6224 19.656 69.6758 19.4064L69.9134 19.3826C69.8407 19.2816 69.734 19.2697 69.7631 19.1746C69.8989 19.2043 70.0977 19.0973 70.0201 18.9368L70.3305 18.9547L69.8407 18.7645C70.025 18.4257 69.6321 18.1225 69.9231 17.9086C69.9231 17.9086 69.9571 17.3082 69.5788 17.2964C69.8213 17.338 69.8358 17.0051 70.1074 17.0111C69.831 16.9516 69.54 16.5891 69.7679 16.3394L69.8019 16.3632C69.9328 15.6559 69.2102 15.4122 69.4187 14.7465C69.152 14.8535 69.2393 14.5147 68.9046 14.693C68.439 14.2115 69.3993 13.4151 68.279 13.528C68.1674 13.2784 68.4681 13.1357 68.4972 12.9812L68.5651 13.0287C68.376 12.5592 68.342 12.4165 68.2984 12.0361C68.1577 11.8816 67.6533 11.9945 67.7115 11.626C67.9298 11.6795 67.8667 11.5547 67.8473 11.4299C67.8958 11.5012 67.9686 11.5071 68.0753 11.305C68.0074 11.305 67.9637 11.2753 67.9249 11.2516C67.9395 11.2516 67.9492 11.2337 67.9734 11.2337C67.8667 11.0435 67.8085 11.097 67.7988 11.204C67.7697 11.204 67.7309 11.2278 67.6776 11.2694C67.8958 10.9841 67.5515 10.675 67.891 10.5561C67.697 9.95581 67.2702 9.59918 67.0471 9.1118C67.212 9.01075 67.3914 9.09397 67.4884 9.22473L67.3623 8.87405C67.6194 8.81461 67.5466 9.04641 67.6145 9.14746C67.9492 8.60658 67.0567 8.34505 67.3526 7.73879L67.1344 7.67935L67.1635 7.64369C67.0567 7.66746 66.8919 7.59019 66.8482 7.51887C67.0616 7.39405 67.3623 7.40594 67.309 7.1563C67.4933 6.90666 67.1198 6.60947 66.9597 6.37172C66.9452 6.52032 66.8143 6.50248 66.727 6.45493C66.6979 6.33011 66.9161 6.21124 66.8046 6.12803L67.1053 6.0567C66.8288 6.16369 66.756 5.78923 66.6251 5.76546C66.8385 5.64658 66.8433 5.92594 67.0179 5.91999C66.9209 5.41478 66.9695 5.67036 66.8725 5.16514C66.6154 4.93333 66.5911 5.26618 66.3147 5.18891C66.2274 4.95711 65.9897 4.75502 66.1401 4.44594L65.883 4.5767C65.6211 4.1547 65.6308 3.8694 65.8733 3.52466C65.2477 2.75197 64.7675 2.28241 64.3747 2.04466C63.977 1.80691 63.6714 1.82474 63.4386 1.97928C63.2058 2.12787 63.0458 2.41317 62.9439 2.66281C62.8421 2.91245 62.8081 3.10265 62.8081 3.10265C62.328 4.71935 63.201 5.35534 63.6326 6.97798H63.6132Z" fill="#2C3538"/>
</g>
<defs>
<clipPath id="clip0_347_39570">
<rect width="76" height="78" fill="white"/>
</clipPath>
</defs>
</svg>
