<svg width="98" height="62" viewBox="0 0 98 62" fill="none" xmlns="http://www.w3.org/2000/svg">
<g clip-path="url(#clip0_347_39584)">
<path d="M92.8302 12.7168L92.5322 12.8645C92.6067 12.8849 92.7036 12.8543 92.8302 12.7168Z" fill="#74235B"/>
<path d="M29.7669 47.5211C29.7669 47.5211 29.7147 47.5415 29.6924 47.5568C29.7445 47.5415 29.7594 47.5313 29.7669 47.5211Z" fill="#74235B"/>
<path d="M81.6045 18.2069V18.1967C81.6045 18.1967 81.6185 18.1559 81.6185 18.1356L81.6045 18.2069Z" fill="#74235B"/>
<path d="M89.6566 8.724C87.6975 11.2908 86.4684 11.7084 84.6806 14.4229C84.1294 15.0238 83.6229 15.6655 83.1312 16.3174C82.6173 16.954 82.1033 17.5906 81.6116 18.1966C81.6489 19.0013 80.1367 19.7092 79.943 20.5648L79.3993 20.6768C79.3322 20.9722 79.1534 21.2727 78.7586 21.4102L78.6916 21.3542C78.565 21.7871 78.0361 22.0825 77.9765 22.3015L77.9094 22.2454L77.5221 22.658L77.4774 22.5306C77.1124 23.2182 76.442 23.7784 75.7641 24.2215L76.1515 24.364C74.5499 25.2247 74.7287 25.9785 73.1122 26.6507L73.0527 26.5896C72.7472 27.4401 71.9651 27.7915 71.1978 28.148C70.4157 28.4994 69.6782 28.8661 69.2015 29.6708C69.3132 29.4671 68.9557 29.6198 68.8961 29.5587C68.2108 30.1291 67.4286 30.7046 67.9947 31.1375C67.4212 31.5093 67.3392 31.3056 67.0487 31.1884C67.302 31.3718 66.8923 31.7639 66.4453 32.0542L66.5645 31.8505L65.3205 32.7163L66.0431 32.92C65.2013 33.2408 65.3056 32.5839 64.7395 33.0779L65.1268 33.3783C64.0318 33.8825 62.8847 33.7399 61.6481 34.0353C60.5978 34.5497 59.5475 35.0793 58.5344 35.665C57.5064 36.2354 56.4412 36.7803 55.3983 37.3456C54.3331 37.8804 53.2232 38.3642 52.1133 38.8073C50.981 39.2198 49.8115 39.5407 48.6346 39.7647L48.2547 39.561C47.9046 39.2045 47.4576 40.5185 47.0405 40.2078L46.6531 40.549C46.4595 40.5236 46.1094 40.5388 46.303 40.3708C45.8263 40.5032 45.8561 40.5694 45.5954 40.7986L44.9324 40.7069C43.9417 40.8801 43.0999 41.1754 42.2656 41.5014C41.4313 41.8375 40.5598 42.1482 39.5169 42.3264C38.8391 42.3264 38.0718 42.4436 37.245 42.5862C36.4107 42.7186 35.5242 42.907 34.6378 43.126C33.7588 43.3603 32.85 43.5436 32.0157 43.7575C31.174 43.9561 30.3993 44.1955 29.7214 44.3279C28.7903 44.5978 27.7772 44.7251 26.7269 44.7812C25.6765 44.8117 24.589 44.7455 23.5163 44.6997C22.4436 44.6691 21.371 44.5316 20.3281 44.5316C19.8067 44.5214 19.2852 44.5418 18.7787 44.5724C18.2647 44.5927 17.7656 44.6437 17.2665 44.7302C17.1399 44.6691 16.7973 44.8015 16.7973 44.8525C16.1864 44.8321 15.5756 44.8321 14.9722 44.8015L13.1547 44.6793C13.1547 44.6793 12.879 44.664 12.4246 44.6437C11.9703 44.6233 11.3296 44.608 10.6071 44.5469C9.16195 44.4501 7.36673 44.3992 5.95885 44.3788C4.55098 44.3941 3.48576 44.5724 3.5528 45.0816C3.59005 45.3363 3.90291 45.6775 4.63292 46.1257C4.99792 46.3498 5.45977 46.6044 6.04824 46.8845C6.33876 47.022 6.65907 47.1799 7.01662 47.3276C7.37418 47.4702 7.76898 47.6128 8.19357 47.7707L8.07439 47.8572C9.12471 48.0711 9.99625 48.2239 10.7933 48.2799C11.5978 48.3054 12.3278 48.2341 13.0951 48.0304C13.2738 48.6212 14.8679 48.1934 15.3521 48.3767L15.3 48.4225C16.6334 47.9795 18.0264 48.83 19.3001 48.4123C19.2554 48.4582 19.2331 48.6262 18.9351 48.6364C19.8663 48.5397 21.1252 48.3614 21.222 48.7026C21.7807 48.6619 22.3915 48.6364 23.0172 48.6059C23.643 48.5651 24.2761 48.504 24.8944 48.4429C26.116 48.3105 27.2334 48.1526 27.8666 47.7859L27.7921 47.8878C28.5072 47.4345 28.8126 47.7197 29.6544 47.4345C29.7139 47.4753 29.781 47.4906 29.7735 47.5109C30.1609 47.2766 30.7866 47.2104 31.39 47.129C31.9934 47.0526 32.5893 47.0016 32.9096 46.8743L33.0213 47.0882L34.7048 46.7776L34.0493 46.8285C34.0493 46.5076 34.4069 46.5535 34.8985 46.6095C35.3901 46.6604 36.0084 46.691 36.5447 46.3803C37.7217 46.2275 38.3251 44.7251 39.5765 44.7404C39.9937 44.3381 39.3083 45.3006 40.0235 44.9034C40.1948 45.2039 39.7329 45.1835 40.0607 45.3821C40.7982 45.0511 41.5431 45.3923 42.4444 44.9543L42.6083 45.1835C43.6661 44.4247 45.2155 44.8474 45.8412 44.2108C47.0479 43.6658 47.1597 44.6539 48.2323 43.7881L48.9698 43.9358C49.5881 43.8033 49.1262 43.4265 49.8786 43.3755C49.9754 43.5844 50.8023 43.2788 50.5565 43.5793C51.3907 43.4978 52.0388 43.1209 52.7614 42.7695C53.4765 42.4079 54.2884 42.082 55.3983 41.9547C55.4952 41.4301 56.5976 41.2824 56.6572 40.8903C56.8435 41.0278 58.5195 40.1824 57.7895 40.931C57.7225 40.9921 57.566 41.0532 57.5213 40.987L57.5884 41.2518C59.0111 41.2417 59.257 40.2231 60.3222 39.8462C59.9572 39.9073 59.5773 40.106 59.7114 39.8462L60.6648 39.4592L60.6425 39.7189C61.1341 39.5457 61.6481 39.3828 62.1174 39.1842L61.7152 39.0619C62.4824 38.848 63.0932 39.0925 63.5178 38.4202C63.6743 38.0892 62.5942 38.4457 63.2199 38.0383C63.7339 37.8906 64.3819 37.7174 65.0374 37.4984C65.6781 37.2693 66.3485 37.0197 66.9221 36.7498C66.5496 36.5766 66.855 36.4289 67.0934 36.2201L67.3616 36.3984C68.1735 35.497 68.3225 36.6072 69.1568 35.7312L69.2313 35.9248L69.0153 35.3493C69.5143 34.3816 70.0581 35.4206 70.4827 34.2492C70.0954 34.5395 69.7304 33.9538 70.3635 33.7196L70.4753 33.9793C70.7136 33.7654 70.7136 33.633 70.952 33.5464C70.9148 33.7552 71.2202 33.8673 71.5926 33.5617L71.6224 33.9691L71.9576 33.1237C72.8292 32.9149 73.4475 32.0491 74.0508 32.1306C74.0508 32.1306 74.4084 31.9371 74.751 31.6875C75.0937 31.4329 75.4215 31.1222 75.3619 30.888C75.3619 31.2292 76.144 30.7963 76.2409 31.1273C76.2855 30.7097 77.0081 29.8847 77.6636 29.7777L77.6264 29.8541C79.295 28.9832 79.511 27.8017 81.0381 27.0378C80.6507 26.8952 81.4403 26.4827 80.8593 26.3757C81.6265 25.1585 83.8389 24.9548 82.8929 23.9006C83.3249 23.3964 83.8166 23.5034 84.1518 23.2946L84.1071 23.4422C84.9116 22.4848 85.1499 22.2149 85.8576 21.5528C86.0513 21.1505 85.4628 20.8093 86.1779 20.2694C86.2599 20.5852 86.4386 20.3102 86.6547 20.081C86.5653 20.244 86.6174 20.3356 87.0718 20.1115C87.0271 20.0352 87.042 19.9435 87.0569 19.8671C87.0793 19.8722 87.109 19.8671 87.1314 19.8875C87.3921 19.4648 87.2431 19.4953 87.0495 19.6583C87.0197 19.6328 86.9526 19.6226 86.826 19.6481C87.5336 19.3986 87.8167 18.5328 88.3232 18.6754C89.2171 17.448 89.4779 16.4294 90.0663 15.365C90.3941 15.3447 90.4313 15.6553 90.2973 15.9813L90.7591 15.2377C91.1092 15.3752 90.6399 15.7215 90.5431 15.966C91.7647 15.3243 91.355 14.0256 92.599 13.2057L92.4649 12.9001L92.5543 12.8543C92.4053 12.8084 92.3606 12.5131 92.4202 12.345C92.8374 12.3093 93.1354 12.5945 93.4706 12.0904C94.059 11.795 94.1186 10.919 94.2825 10.3384C94.0441 10.6032 93.9249 10.4556 93.8952 10.3028C94.0516 10.0481 94.4613 10.0023 94.4538 9.76293L94.9008 9.86988C94.4315 9.84442 94.9008 9.0754 94.7816 8.9328C95.1913 8.88188 94.7965 9.40644 94.9976 9.54394C95.6159 8.51519 95.3254 9.03466 95.9064 7.99572C95.9064 7.35403 95.4371 7.98044 95.2136 7.60867C95.4148 7.10448 95.3924 6.54936 95.9883 6.07064L95.4967 6.14194C95.7276 5.15902 96.0405 4.62428 96.7854 4.1099C96.9195 2.21028 96.6439 1.11023 96.3161 0.539833C95.9734 -0.035656 95.5042 -0.0967698 95.0349 0.0662005C94.0963 0.397234 93.1577 1.63479 93.1577 1.63479C90.9304 4.00295 91.3625 5.61738 89.6864 8.71381L89.6566 8.724Z" fill="#2C3538"/>
<path d="M3.88867 40.9666L4.06745 40.9972C4.00041 40.9666 3.93337 40.9513 3.88867 40.9666Z" fill="#74235B"/>
<path d="M12.2387 31.4486C12.2387 31.4486 12.2238 31.433 12.209 31.4278C12.209 31.4382 12.2239 31.4434 12.2387 31.4486Z" fill="#74235B"/>
<path d="M10.1602 41.7102C10.1602 41.7102 10.1747 41.7306 10.1893 41.7408L10.1674 41.7102H10.1602Z" fill="#74235B"/>
<path d="M3.27614 45.1447C3.85505 44.831 3.92826 45.218 4.59066 44.5424C4.88556 44.3565 5.21956 44.0019 5.51767 43.7229C5.71672 43.227 5.90064 43.4282 6.11599 42.9747L6.14785 43.1451C6.21963 42.9939 6.29724 42.8668 6.3391 42.94L6.32575 43.0056C6.43591 42.7713 6.517 42.8005 6.56745 42.6891L6.55409 42.7547L6.65975 42.651L6.62721 42.7581C6.79914 42.4698 6.95451 42.3403 7.0727 42.3237L7.09927 42.0678C7.3429 42.1461 7.52208 41.5186 7.72982 41.6725L7.71862 41.7399C8.13734 40.7942 8.16865 41.8175 8.59321 40.8958C8.53813 41.013 8.59119 41.0188 8.57999 41.0862C8.74655 40.8893 8.91431 40.7222 8.9832 40.2043C9.09469 40.1246 9.05558 40.2934 9.04237 40.4837C9.07013 40.2575 9.1802 40.0903 9.26731 40.0095L9.21439 40.1284L9.47454 39.8561L9.47908 39.4667C9.59599 39.4874 9.44879 39.9593 9.58667 39.7577L9.62756 39.4082C9.80322 39.334 9.84549 39.7815 9.99218 39.9037C10.7218 39.4663 11.6106 37.9533 12.2411 38.0087L12.2464 38.2431C12.2203 38.6145 12.4951 37.5298 12.486 37.8579L12.5829 37.6221C12.5967 37.672 12.6377 37.7061 12.5916 37.8211C12.6641 37.7761 12.6707 37.7144 12.736 37.5579L12.7922 37.7294C13.0715 37.6744 13.3624 37.0249 13.6632 36.8631C13.9921 37.0412 14.7302 36.0356 15.1565 35.451C15.7617 34.44 16.3179 35.3636 16.942 34.2534C16.9586 34.2864 17.015 34.132 17.0141 34.0929L17.5401 33.7064C17.5401 33.7064 18.1831 33.2065 18.6015 32.529C19.0198 31.8515 19.1903 31.025 18.3046 30.3256L18.3232 30.2357C18.0511 30.2774 17.8788 30.3832 17.6574 30.9467C17.6534 30.4832 17.4261 31.0897 17.3698 30.9853L17.3757 30.9422C17.1825 31.4621 17.0413 30.9226 16.8518 31.3976C16.8577 31.3546 16.8737 31.2145 16.9104 31.178C16.785 31.3419 16.6146 31.5836 16.6243 31.304C16.3317 31.6164 15.9365 31.8146 15.7157 32.4265L15.7343 32.3365C15.6051 32.7371 15.5934 32.4972 15.4625 32.7526C15.4592 32.7211 15.453 32.7063 15.4558 32.6895C15.3177 33.0922 15.1163 33.0108 15.0115 33.2207L15.0179 33.0343L14.7859 33.2629L14.8667 33.2344C14.7944 33.7878 14.7201 33.0451 14.5239 33.5241C14.3754 33.5826 14.1129 34.8885 13.9709 34.7606C13.8735 35.0727 14.0733 34.2994 13.9436 34.5845C13.9665 34.3064 14.0134 34.3645 14.0047 34.1656C13.8816 34.389 13.8429 34.0308 13.6882 34.3334L13.6999 34.1226C13.4813 34.6693 13.3852 34.1098 13.2245 34.5896C13.0201 34.9179 13.1635 34.0402 12.9236 34.6266L12.8786 34.3878C12.798 34.407 12.7845 34.7985 12.7047 34.732C12.729 34.5413 12.6023 34.6755 12.6742 34.4573C12.4967 34.3286 12.2089 35.2107 11.9877 34.9306C11.8869 35.3452 11.7754 35.2332 11.7003 35.5446C11.71 35.3897 11.4273 35.7391 11.621 35.2676C11.6402 35.2261 11.6628 35.2161 11.654 35.2759L11.6976 35.0437C11.5853 34.7585 11.3869 35.4945 11.2405 35.5548C11.2815 35.5889 11.3415 35.5238 11.2842 35.7062L11.1437 35.7905L11.1952 35.5841L10.9933 35.6461L10.9973 35.8508C10.9076 35.8144 10.9155 35.4566 10.7591 35.8729C10.6826 36.0968 10.8245 36.1 10.7058 36.26C10.5831 36.2153 10.4036 36.1425 10.2301 36.2186C10.215 36.4648 10.1674 36.4924 10.1133 36.5815L10.1365 36.3611C9.90753 36.8224 10.1272 35.9219 9.90945 36.3158L9.9464 36.1452L9.8402 36.6513C9.61387 37.2298 9.80494 36.2575 9.53919 37.0142C9.618 36.9168 9.51203 37.4806 9.43308 37.4532L9.48338 37.217C9.42496 37.3026 9.39921 37.4058 9.36869 37.39C9.41578 37.247 9.42436 37.0624 9.34339 37.158L9.42959 36.8462L9.23668 37.3567C9.15975 37.2063 8.94752 37.6336 8.94357 37.3619C8.94357 37.3619 8.72941 37.3944 8.62986 37.7718C8.70486 37.5274 8.58667 37.544 8.65368 37.2738C8.5595 37.5597 8.35727 37.8899 8.31743 37.6937L8.33661 37.6522C8.10776 37.5958 7.83307 38.3546 7.64011 38.2226C7.61354 38.4786 7.50871 38.4296 7.48883 38.7487C7.191 39.2772 7.14129 38.4016 6.89634 39.5208C6.77613 39.6604 6.80151 39.3747 6.74845 39.3689L6.78434 39.2933C6.56064 39.5384 6.50101 39.5943 6.34909 39.6883C6.25477 39.8494 6.16646 40.3512 6.04708 40.338C6.11928 40.1105 6.06117 40.1868 6.00651 40.2275C6.04391 40.1724 6.06439 40.0935 6.01605 40.0149C5.99591 40.0844 5.97424 40.1335 5.95506 40.1751C5.95786 40.1582 5.95818 40.1489 5.95882 40.1303C5.85867 40.2674 5.86817 40.3136 5.90149 40.3126C5.89374 40.3445 5.8903 40.38 5.89764 40.4245C5.84853 40.2398 5.64189 40.6334 5.6843 40.3043C5.40841 40.5827 5.16524 41.0705 4.92882 41.3626C4.92965 41.2099 5.00735 41.0157 5.08001 40.9037L4.91409 41.0819C4.95608 40.8292 5.02791 40.8699 5.07955 40.7882C4.96453 40.5198 4.63434 41.4721 4.47943 41.2664L4.40044 41.4978L4.39461 41.4738C4.37997 41.5767 4.30722 41.7558 4.26518 41.8166C4.27193 41.6209 4.35133 41.3131 4.24168 41.4039C4.19128 41.2565 3.98336 41.6874 3.85228 41.885C3.9035 41.8798 3.86784 42.0131 3.82451 42.1112C3.76737 42.1595 3.77411 41.9638 3.71656 42.0884L3.75984 41.7984C3.73295 42.0637 3.56831 42.2046 3.53049 42.3361C3.53723 42.1404 3.6456 42.0868 3.68718 41.9105L3.35791 42.1924C3.20755 42.4986 3.33102 42.4576 3.22972 42.7568C3.11631 42.8925 2.98017 43.1722 2.89916 43.076L2.89113 43.309C2.66389 43.6567 2.55337 43.7084 2.47277 43.5358C1.56785 45.1313 1.34708 45.935 1.36691 46.3255C1.38674 46.7159 1.63574 46.7028 1.63574 46.7028C2.10262 46.8711 2.543 45.8764 3.25759 45.1676L3.27614 45.1447Z" fill="#2C3538"/>
<path d="M7.06157 46.5942L6.94238 46.6961C7.00942 46.6706 7.06157 46.635 7.06157 46.5942Z" fill="#74235B"/>
<path d="M17.8779 57.0955C17.8779 57.0955 17.8994 57.0955 17.9209 57.0905C17.9066 57.0905 17.8923 57.0905 17.8779 57.0955Z" fill="#74235B"/>
<path d="M4.8792 46.6703C5.17462 47.0861 4.49842 47.1021 5.39576 47.6072C5.59592 47.8197 6.07036 48.0761 6.43769 48.2993C7.18611 48.473 6.79811 48.5792 7.46526 48.7552L7.17638 48.7633C7.40133 48.8235 7.58119 48.8848 7.44998 48.9056L7.34629 48.8921C7.68846 48.9814 7.62049 49.0321 7.79572 49.078L7.69203 49.0645L7.83145 49.1422L7.66915 49.1142C8.08749 49.2513 8.25336 49.3624 8.24804 49.4453L8.65878 49.4817C8.46257 49.6385 9.42749 49.8067 9.12357 49.9324L9.01987 49.9189C10.4361 50.2665 8.77585 50.2142 10.1381 50.5627C9.97051 50.5214 9.94299 50.5556 9.8393 50.5421C10.1089 50.6668 10.334 50.7904 11.1441 50.8717C11.2467 50.9529 10.9801 50.9135 10.6814 50.8929C11.0387 50.928 11.2837 51.0128 11.3906 51.0788L11.2141 51.0372L11.5811 51.2299L12.2 51.2584C12.1426 51.3356 11.4182 51.204 11.7021 51.3093L12.2521 51.3601C12.3254 51.4821 11.5918 51.4792 11.3605 51.5695C11.8699 52.0846 14.0653 52.7836 13.7985 53.192L13.4173 53.1782C12.8293 53.1352 14.5028 53.3952 13.974 53.3646L14.3275 53.4455C14.2451 53.4521 14.1755 53.4766 13.999 53.4351C14.0479 53.4844 14.1522 53.4957 14.3873 53.5518L14.0942 53.5751C14.1047 53.761 15.0763 54.0014 15.2414 54.2109C14.854 54.411 16.2645 54.9703 17.0789 55.292C18.5476 55.772 16.8342 56.0374 18.4326 56.5337C18.3679 56.5408 18.6047 56.5904 18.6747 56.5965L19.1181 56.9636C19.1181 56.9636 19.7003 57.4106 20.6476 57.7377C21.5954 58.0628 22.9696 58.3045 24.4917 57.8268L24.6381 57.8479C24.6619 57.6672 24.5447 57.5419 23.688 57.3393C24.4628 57.387 23.5284 57.1737 23.7231 57.1501L23.7918 57.1606C22.9919 56.9791 23.9333 56.9435 23.2103 56.7748C23.2791 56.7852 23.5061 56.8062 23.5604 56.8359C23.3286 56.7362 22.9814 56.6009 23.4379 56.6341C23.0166 56.4117 22.808 56.1335 21.8693 55.9354L22.0157 55.9565C21.4045 55.8364 21.7952 55.8483 21.4217 55.7429C21.4751 55.7443 21.503 55.7406 21.5291 55.7434C20.9108 55.6166 21.0985 55.4902 20.7913 55.404L21.0983 55.4269L20.7888 55.2532L20.8092 55.3083C19.9226 55.212 21.1632 55.2275 20.4402 55.0588C20.3888 54.9549 18.3358 54.6745 18.5831 54.5911C18.1069 54.5006 19.3059 54.6964 18.8796 54.5875C19.3259 54.6248 19.2113 54.6504 19.5398 54.6607C19.2102 54.5586 19.8079 54.5669 19.3604 54.4378L19.7025 54.4638C18.8776 54.2751 19.8059 54.2545 19.0757 54.1118C18.5929 53.9491 19.9801 54.1124 19.0967 53.9092L19.4941 53.8972C19.4826 53.8423 18.8578 53.8028 18.9874 53.7557C19.292 53.7873 19.1041 53.6909 19.4441 53.7562C19.6987 53.6467 18.3471 53.3881 18.858 53.2588C18.2134 53.162 18.4209 53.0929 17.9392 53.0219C18.1852 53.0389 17.6992 52.8237 18.4056 52.9876C18.4642 53.0022 18.4778 53.0178 18.3818 53.0089L18.745 53.055C19.2352 52.9995 18.1044 52.8163 18.044 52.7121C17.975 52.7345 18.069 52.7827 17.7883 52.7298L17.6911 52.6291L18.0093 52.6763L17.9675 52.5377L17.6396 52.5251C17.7189 52.466 18.2928 52.4955 17.6669 52.3642C17.3269 52.2989 17.283 52.3918 17.0576 52.301C17.1602 52.2227 17.3188 52.1043 17.2532 51.9869C16.8661 51.962 16.8313 51.9262 16.7 51.8836L17.0497 51.9141C16.3754 51.7313 17.7594 51.9383 17.1812 51.7645L17.4401 51.7993L16.655 51.6924C15.7857 51.5026 17.2985 51.6975 16.1537 51.4681C16.2891 51.5282 15.4068 51.4167 15.4747 51.366L15.8367 51.4165C15.7149 51.372 15.552 51.3461 15.5924 51.3296C15.805 51.3698 16.1038 51.3904 15.9773 51.3304L16.4565 51.4101L15.6873 51.2468C15.9497 51.2052 15.3252 51.0368 15.7598 51.052C15.7598 51.052 15.7733 50.9081 15.1897 50.8172C15.5647 50.8855 15.5694 50.8048 15.99 50.8698C15.5565 50.787 15.0813 50.6288 15.407 50.6172L15.465 50.634C15.6143 50.4848 14.4796 50.2512 14.7538 50.1357C14.3437 50.0971 14.4598 50.0345 13.9506 49.9978C13.1919 49.7648 14.6162 49.7959 12.8838 49.554C12.6941 49.4641 13.1493 49.5016 13.1845 49.4719L13.2934 49.4987C12.9719 49.3356 12.9034 49.2924 12.7992 49.1849C12.569 49.1115 11.7815 49.0133 11.839 48.9361C12.1872 49.0037 12.0755 48.955 12.0319 48.919C12.1129 48.9494 12.2332 48.9677 12.3828 48.9452C12.2803 48.9274 12.2045 48.9102 12.1459 48.8956C12.172 48.8985 12.1898 48.8989 12.2241 48.9041C12.039 48.8296 11.9583 48.8298 11.9517 48.8537C11.9001 48.8458 11.8474 48.8423 11.7673 48.8403C12.0853 48.8242 11.5136 48.6593 12.0357 48.7138C11.6877 48.5172 10.9816 48.3206 10.5843 48.1403C10.8392 48.1576 11.1252 48.2236 11.2878 48.2823L11.0532 48.1607C11.4508 48.2121 11.3592 48.2513 11.4728 48.2935C11.9683 48.2512 10.5044 47.9461 10.9265 47.8779L10.5712 47.8036L10.6163 47.8025C10.4522 47.7809 10.1834 47.7175 10.1023 47.6871C10.4265 47.7126 10.9134 47.7968 10.809 47.7221C11.0807 47.7114 10.4574 47.5386 10.1811 47.4378C10.172 47.4703 9.9594 47.4301 9.80842 47.3936C9.7565 47.3552 10.0884 47.3853 9.8966 47.3346L10.3712 47.3988C9.93742 47.3487 9.78105 47.2356 9.56903 47.1932C9.90093 47.2233 9.93545 47.2919 10.2174 47.3404C10.0085 47.191 10.113 47.2657 9.92123 47.119C9.48206 46.9923 9.47978 47.0643 9.01492 46.9654C8.84942 46.8848 8.44401 46.7655 8.65892 46.7337L8.25001 46.6908C7.78157 46.5087 7.73938 46.4356 8.10952 46.4251C5.92166 45.6674 4.57664 45.3215 3.86775 45.2624C3.14411 45.192 3.02309 45.3681 3.02309 45.3681C2.88618 45.4412 2.87014 45.5303 2.95133 45.6241C3.03374 45.7135 3.20265 45.8138 3.41361 45.9239C3.83674 46.1398 4.42034 46.3902 4.88042 46.666L4.8792 46.6703Z" fill="#2C3538"/>
</g>
<defs>
<clipPath id="clip0_347_39584">
<rect width="98" height="62" fill="white"/>
</clipPath>
</defs>
</svg>
