<svg width="99" height="26" viewBox="0 0 99 26" fill="none" xmlns="http://www.w3.org/2000/svg">
<g clip-path="url(#clip0_347_39612)">
<path d="M14.0557 16.9601L14.3033 17.0877C14.3033 17.0239 14.2325 16.9717 14.0557 16.9601Z" fill="#74235B"/>
<path d="M76.0537 8.91806C76.0537 8.91806 76.0891 8.89485 76.1009 8.87744C76.0655 8.89485 76.0537 8.91225 76.0537 8.91806Z" fill="#74235B"/>
<path d="M23.9243 21.1552H23.9125C23.8948 21.1726 23.8653 21.1784 23.8477 21.19L23.9243 21.1552Z" fill="#74235B"/>
<path d="M12.9296 22.1659C16.2901 22.2878 17.2039 22.8796 20.6883 22.5257C22.3567 22.5025 24.1254 22.2762 25.7468 22.1253C26.4896 21.6089 27.881 21.9861 28.7653 21.5161L29.1368 21.7714C29.4433 21.6089 29.803 21.4929 30.1272 21.6205L30.1154 21.7017C30.5694 21.458 31.1059 21.5509 31.3299 21.429L31.3182 21.5103L31.8841 21.4348L31.7957 21.5567C32.5975 21.2898 33.4347 21.1853 34.1834 21.226L34.095 20.8952C35.7104 21.1331 36.2292 20.3846 37.6973 20.7037L37.6855 20.785C39.4011 19.7406 40.6038 21.0867 42.3725 20.0597C42.1544 20.1873 42.4904 20.2222 42.4845 20.3034C43.3276 20.1177 44.2356 19.9669 44.1707 19.3054C44.7956 19.2474 44.7013 19.4505 44.8133 19.6942C44.7721 19.404 45.2968 19.2184 45.7802 19.1371L45.5739 19.2764L46.9476 18.9979L46.6056 18.4931C47.3603 18.5569 46.8768 19.1313 47.5666 18.9108L47.4959 18.4641C48.5217 18.4235 49.2174 19.0269 50.2491 19.23C52.3126 19.0385 54.3997 18.4641 56.4632 17.9941C58.5149 17.4835 60.5371 17.0425 62.5121 17.1121L62.742 17.4197C62.9071 17.8954 63.65 16.4971 63.8799 16.9207L64.2749 16.6131C64.4164 16.677 64.6935 16.7176 64.499 16.8742C64.9117 16.8162 64.9058 16.735 65.1652 16.5261L65.6604 16.7466C67.3112 16.6654 68.5611 15.8414 70.2649 15.5861C71.3438 15.679 72.8 15.3773 74.2563 14.9537C75.7066 14.5243 77.1393 13.9325 78.1887 13.5147C78.908 13.155 79.698 12.9519 80.5293 12.8243C81.3547 12.685 82.2154 12.6154 83.0821 12.5457C84.8095 12.3949 86.5664 12.2672 87.9991 11.4027C88.117 11.4433 88.3351 11.217 88.3174 11.159L91.1768 10.4279C91.1768 10.4279 91.3891 10.3699 91.7487 10.2655C92.1025 10.161 92.5977 10.016 93.1519 9.81868C94.2603 9.43573 95.6104 8.91352 96.6009 8.36811C98.5877 7.27728 99.0593 6.10522 93.3111 5.69326L93.3464 5.57141C91.7487 5.7861 90.7759 6.01238 89.868 6.8247C89.5143 6.22707 88.5886 7.10901 88.1701 7.00457L88.1877 6.94075C87.3918 7.69504 86.1478 7.0742 85.3696 7.76467C85.3873 7.70085 85.3637 7.52678 85.5642 7.45715C84.9274 7.71245 84.0667 8.0838 83.9134 7.72406C82.3628 8.22305 80.1284 8.62921 79.2676 9.47634L79.3089 9.3545C78.8313 9.89991 78.5778 9.59239 77.9823 9.95213C77.9352 9.91151 77.8821 9.89411 77.8821 9.8767C77.3515 10.4279 76.0545 10.3757 75.5887 10.6658L75.4944 10.4221L74.2504 10.7761L74.7338 10.718C74.7338 11.4491 73.6844 10.515 72.8708 11.1532C71.9982 11.2518 71.4558 12.9693 70.4831 12.8185C70.1293 13.2362 70.7425 12.2092 70.1588 12.598C70.0586 12.2382 70.4064 12.3079 70.1824 12.0526C69.5928 12.3601 69.0799 11.9017 68.3665 12.3137L68.2781 12.0351C67.3819 12.7604 66.303 12.0351 65.737 12.656C64.7466 13.0912 64.8763 11.9481 63.9035 12.714L63.4083 12.4123C62.9366 12.4413 63.1665 12.9461 62.6182 12.8591C62.6006 12.6096 61.9343 12.7894 62.1879 12.5051C60.9616 12.3369 59.9239 13.4509 58.279 13.0738C58.0314 13.6018 57.2119 13.4567 57.0233 13.8513C56.9466 13.654 55.4727 14.0834 56.2627 13.4857C56.3335 13.4335 56.4632 13.4219 56.4691 13.5031L56.528 13.2072C55.567 12.8359 54.9893 13.741 54.1049 13.799C54.3761 13.8513 54.7122 13.7758 54.5176 14.0021L53.704 14.0834L53.8337 13.8222L52.6133 13.8629L52.8255 14.1298C52.2124 14.0659 51.9353 13.6018 51.3339 14.1182C51.0686 14.3967 51.9471 14.4315 51.3398 14.6114C50.5262 14.5359 49.3058 14.3967 48.2859 14.4315C48.4274 14.7506 48.1503 14.7738 47.885 14.8725L47.8142 14.5881C46.8002 15.122 47.3367 14.0079 46.3226 14.4605L46.3875 14.2516L46.187 14.8841C45.3027 15.5745 45.5975 14.3561 44.6365 15.267C45.0492 15.1626 44.9136 15.8763 44.3771 15.8182L44.4714 15.5223C44.1943 15.6152 44.1118 15.7486 43.9113 15.708C44.0646 15.5397 43.9526 15.296 43.5399 15.3889L43.7816 15.0117L43.0446 15.6093C42.3961 15.3773 41.4646 15.8588 41.1639 15.4933C41.1639 15.4933 39.8197 15.4469 39.5662 15.9053C39.802 15.6093 39.0651 15.5861 39.236 15.2554C38.9236 15.5919 37.939 15.9575 37.5027 15.6616L37.5735 15.621C36.0465 15.4237 35.0501 16.294 33.6705 16.0097C33.759 16.3404 33.0338 16.2186 33.246 16.6306C31.8841 17.1876 30.6343 15.9517 30.2275 17.3094C29.5966 17.4255 29.4492 17.0483 29.1191 17.0019L29.2665 16.9207C28.0814 17.1063 27.7395 17.1412 26.8492 17.1702C26.413 17.3268 26.3835 17.9535 25.5817 17.8432C25.8234 17.5879 25.505 17.6459 25.2044 17.6634C25.393 17.6169 25.4461 17.5241 25.0452 17.379C24.9921 17.4545 24.9096 17.5067 24.8329 17.5473C24.8329 17.5299 24.8093 17.5125 24.8211 17.4893C24.3318 17.5995 24.4202 17.6692 24.6502 17.6924C24.6384 17.733 24.662 17.7794 24.7386 17.8432C24.208 17.5531 23.306 17.9303 23.2234 17.5125C21.7377 17.6692 20.6942 18.174 19.4561 18.3654C19.3087 18.1507 19.5917 17.9535 19.9513 17.8606L19.0729 17.9593C19.0729 17.6459 19.574 17.7678 19.8393 17.6982C18.7781 17.2224 17.6933 18.2552 16.4493 17.82L16.2017 18.0695L16.125 18.0289C16.1309 18.1565 15.8597 18.3422 15.677 18.3886C15.5001 18.1217 15.677 17.762 15.0697 17.7968C14.5863 17.5531 13.7078 17.9593 13.077 18.1043C13.4189 18.1507 13.3128 18.3016 13.1654 18.3944C12.8588 18.406 12.682 18.1333 12.4461 18.2494L12.4108 17.8838C12.5346 18.2262 11.6207 18.261 11.5087 18.406C11.3319 18.1333 11.9804 18.174 12.057 17.9651C10.8366 18.0057 11.4439 17.9825 10.2294 18.0231C9.58084 18.3016 10.3473 18.3654 10.0348 18.6904C9.45704 18.7658 8.89695 19.0211 8.23663 18.8064L8.44298 19.1313C7.35818 19.3866 6.70966 19.3228 5.97859 18.9863C1.93417 20.2686 1.45662 21.1621 2.03439 21.7482C2.60627 22.3284 4.21579 22.6011 4.21579 22.6011C5.81941 22.984 7.04571 22.9608 8.34275 22.7868C9.6398 22.6011 11.0135 22.2994 12.9237 22.1659H12.9296Z" fill="#2C3538"/>
<path d="M74.5977 0.411987L74.6507 0.557044C74.6566 0.493219 74.6507 0.440999 74.5977 0.411987Z" fill="#74235B"/>
<path d="M91.8135 2.50655C91.8135 2.50655 91.8253 2.48914 91.8312 2.47754C91.8194 2.48914 91.8135 2.49495 91.8135 2.50655Z" fill="#74235B"/>
<path d="M76.6613 5.2511C76.6554 5.2627 76.6436 5.26851 76.6377 5.28011L76.6613 5.2511Z" fill="#74235B"/>
<path d="M91.0996 22.1696L91.247 22.1529C91.188 22.1417 91.1291 22.1417 91.0996 22.1696Z" fill="#74235B"/>
<path d="M94.3901 8.96328C94.3901 8.96328 94.3782 8.95252 94.3604 8.94714C94.3663 8.9579 94.3782 8.96328 94.3901 8.96328Z" fill="#74235B"/>
<path d="M96.0996 21.2422C96.1115 21.2476 96.1175 21.2529 96.1294 21.2637L96.0996 21.2422Z" fill="#74235B"/>
<path d="M95.0675 23.8184C95.4036 23.1627 96.0757 23.1279 96.0049 22.3388C96.1405 22.0081 96.0933 21.6019 96.1051 21.248C95.663 20.9695 96.2113 20.8012 95.8516 20.5169H96.1464C96.0226 20.4125 95.9518 20.3138 96.1169 20.2848L96.1936 20.308C96.0108 20.1572 96.1641 20.0817 96.0698 20.0063L96.1464 20.0295V19.9019L96.2525 19.9483C96.0757 19.722 96.1051 19.5479 96.2466 19.4145L95.9106 19.3448C96.3645 19.1069 95.7101 18.8168 96.2231 18.6254L96.2997 18.6486C95.5215 18.0567 97.0484 18.2018 96.3115 17.61C96.4058 17.6854 96.4884 17.6332 96.565 17.6564C96.5178 17.4533 96.5119 17.2502 95.8634 17.0878C95.9047 16.9601 96.0933 17.0297 96.3528 17.0762C96.0639 17.0065 95.9754 16.8673 95.9872 16.757L96.0874 16.8325L96.0639 16.5191L95.5097 16.4437C95.7042 16.3277 96.1759 16.5656 96.0816 16.3857L95.6335 16.2754C95.775 16.084 96.4825 16.1246 96.8657 15.9969C97.2725 15.1846 96.3704 13.9777 97.355 13.3743L97.7029 13.4207C98.1981 13.5252 97.0308 13.0204 97.4965 13.1016L97.2961 12.9565C97.3904 12.9565 97.4965 12.9217 97.5967 12.9913C97.638 12.9101 97.5555 12.8869 97.4258 12.7883L97.7559 12.7709C98.0802 12.4866 97.5614 12.0572 97.7736 11.7265C98.5047 11.4479 98.1391 10.5022 97.921 9.95096C97.355 9.11543 99.501 8.83112 98.8289 7.96078C98.9056 7.96078 98.7641 7.86214 98.7051 7.85053L98.9292 7.2529C98.9292 7.2529 99.8666 4.32275 95.2326 5.58765L95.1324 5.54703C94.7845 5.81974 94.6784 6.01701 95.1559 6.38256C94.4897 6.25491 95.0203 6.64366 94.7845 6.66687L94.7314 6.64366C95.1854 6.97439 94.2008 6.96278 94.6076 7.27031C94.5546 7.2471 94.3777 7.20068 94.3777 7.15426C94.4249 7.31672 94.5192 7.54881 94.136 7.46758C94.1478 7.83313 93.853 8.2741 94.4072 8.63964L94.307 8.59903C94.6902 8.82532 94.3246 8.7789 94.5015 8.97037C94.4485 8.97037 94.419 8.97037 94.4013 8.96457C94.7727 9.20246 94.3659 9.37653 94.5133 9.53319L94.2539 9.47517L94.2421 9.75948L94.3246 9.67245C95.0144 9.88133 93.8353 9.77109 94.2362 10.0786C94.1006 10.2411 95.5981 10.8097 95.209 10.9199C95.5156 11.094 94.6961 10.7111 94.9142 10.9083C94.5487 10.8213 94.702 10.7865 94.4013 10.7517C94.5428 10.9257 93.9709 10.8793 94.1773 11.1056L93.8884 11.0418C94.3541 11.3841 93.4108 11.3551 93.8707 11.622C94.0476 11.9005 92.9863 11.564 93.4875 11.9353H93.0807C92.9922 12.0166 93.5346 12.1152 93.3224 12.1848C93.0807 12.121 93.0924 12.2777 92.8802 12.1558C92.438 12.3125 93.2929 12.7941 92.5677 12.9623C93.0217 13.148 92.6974 13.2466 93.0394 13.3859C92.833 13.3453 92.9215 13.7108 92.5206 13.4149C92.4852 13.3917 92.5029 13.3627 92.5795 13.3859L92.3083 13.2931C91.7306 13.3511 92.5147 13.705 92.385 13.8675C92.4911 13.8327 92.4852 13.7573 92.668 13.8501L92.5854 14.0126L92.3614 13.9197L92.1609 14.1402L92.4616 14.175C92.2789 14.262 91.7718 14.1866 92.1491 14.4303C92.3614 14.5522 92.5736 14.4071 92.6326 14.5638C92.3909 14.6856 92.0312 14.8597 91.8897 15.0512C92.2258 15.1092 92.1963 15.1672 92.2494 15.2426L91.9605 15.1788C92.2965 15.5037 91.312 15.1092 91.5714 15.4109L91.3768 15.3413L91.9546 15.5444C92.4675 15.8867 91.3355 15.5095 92.0489 15.9215C92.0253 15.8229 92.6857 16.0317 92.5383 16.113L92.273 16.0201C92.3142 16.0956 92.4262 16.142 92.3614 16.171C92.2199 16.1014 91.9664 16.055 91.99 16.1536L91.6598 16.0085L92.1256 16.3044C91.7954 16.3625 92.1138 16.6584 91.7129 16.6178C91.7129 16.6178 91.4535 16.8499 91.8603 17.0181C91.6126 16.8963 91.4711 17.0297 91.1705 16.9079C91.4535 17.0529 91.6421 17.3256 91.3002 17.3373L91.2707 17.314C90.8639 17.5519 91.5773 17.9697 91.1115 18.1554C91.4476 18.225 91.2294 18.3294 91.6598 18.3991C92.0018 18.7994 90.6634 18.7298 91.9428 19.1534C91.9782 19.3042 91.595 19.2404 91.5124 19.2926L91.4535 19.2462C91.4947 19.5247 91.4888 19.6001 91.4122 19.78C91.5183 19.9019 92.1197 20.0701 91.931 20.1978C91.7011 20.0875 91.7306 20.163 91.7129 20.2268C91.6834 20.1746 91.6008 20.1456 91.4181 20.1862C91.4888 20.2152 91.5301 20.2442 91.5655 20.2732C91.5478 20.2732 91.5301 20.2732 91.5065 20.2616C91.5655 20.3893 91.6421 20.3893 91.6893 20.3486C91.7247 20.3602 91.7718 20.366 91.8426 20.3718C91.5006 20.4067 91.7895 20.6794 91.3709 20.5923C91.3886 20.9289 91.76 21.2596 91.8544 21.5613C91.6362 21.5381 91.4594 21.4337 91.3945 21.335L91.424 21.5381C91.1174 21.4627 91.2766 21.3872 91.2294 21.3176C90.6752 21.4163 91.6067 21.892 91.0879 22.0429L91.3179 22.1589H91.2766C91.4063 22.1938 91.5655 22.2982 91.595 22.3446C91.3179 22.3156 90.9818 22.1938 90.9641 22.3214C90.6811 22.362 91.0231 22.6405 91.1292 22.8088C91.1941 22.7508 91.3355 22.8088 91.424 22.861C91.4181 22.9248 91.141 22.8958 91.2412 22.9771L90.8816 22.8958C91.2294 22.9539 91.2058 23.1511 91.3473 23.215C91.0702 23.1859 91.141 23.0583 90.9464 22.9945C90.9169 23.2614 90.9287 23.1279 90.8993 23.3948C91.1351 23.5979 91.2471 23.4529 91.5478 23.5979C91.5891 23.7372 91.8072 23.917 91.5596 24.0041L91.8897 24.0389C92.0784 24.329 92.0076 24.4566 91.648 24.5263C93.8235 26.8588 95.1206 25.7564 95.1206 25.7564C95.999 25.2632 95.15 24.6887 95.1029 23.8358L95.0675 23.8184Z" fill="#2C3538"/>
<path d="M74.6846 5.62596C75.5883 5.94035 75.7629 6.59895 76.7471 6.51454C77.1953 6.63991 77.699 6.58389 78.1504 6.58286C78.4141 6.1412 78.7344 6.67457 79.0296 6.31499L79.0953 6.60584C79.1936 6.48406 79.3049 6.40894 79.3796 6.56791L79.3635 6.64767C79.514 6.46514 79.6478 6.60973 79.7231 6.52134L79.707 6.6011L79.8672 6.59164L79.8279 6.69904C80.0735 6.52115 80.3057 6.54395 80.4987 6.67992L80.5153 6.34705C80.911 6.79204 81.1463 6.13614 81.4897 6.63611L81.4736 6.71587C82.0685 5.93365 82.1961 7.44141 82.798 6.70555C82.7228 6.7997 82.8017 6.87833 82.7916 6.95838C83.0399 6.90718 83.2951 6.89659 83.3702 6.25016C83.5433 6.28735 83.4879 6.4745 83.4816 6.73308C83.5111 6.44686 83.6755 6.35706 83.8122 6.36372L83.7372 6.46362L84.1344 6.43119L84.1226 5.88407C84.3049 6.07129 84.0953 6.54434 84.3071 6.4511L84.351 6.00449C84.6211 6.13846 84.7135 6.83908 84.9532 7.21319C86.0663 7.5953 87.4125 6.67131 88.3777 7.63304L88.385 7.97282C88.354 8.46032 88.7566 7.30054 88.7487 7.76041L88.8988 7.5606C88.9246 7.65391 88.9863 7.76047 88.9113 7.86037C89.025 7.90042 89.0351 7.82037 89.1332 7.68707L89.2234 8.01364C89.646 8.32762 90.0922 7.80855 90.5478 8.00332C91.0444 8.71786 92.1764 8.32999 92.825 8.10843C93.7688 7.52729 94.5568 9.63675 95.5342 8.95945C95.5536 9.03518 95.6455 8.89008 95.6502 8.83278L96.4506 9.03858C96.4506 9.03858 100.354 9.89595 97.8144 5.35397L97.8478 5.25205C97.4307 4.91532 97.1613 4.81591 96.7975 5.29871C96.8189 4.63815 96.4442 5.16645 96.362 4.93809L96.3788 4.88712C96.056 5.34316 95.8687 4.37328 95.5567 4.77807C95.5734 4.7271 95.5993 4.55002 95.6586 4.54715C95.4577 4.5949 95.1867 4.69677 95.2141 4.3184C94.7513 4.3419 94.1394 4.05897 93.7832 4.61694L93.8166 4.51501C93.605 4.89592 93.5973 4.53885 93.3874 4.71848C93.3863 4.66665 93.3737 4.63728 93.3793 4.62029C93.1558 4.99486 92.8442 4.59424 92.681 4.74163L92.6993 4.48938L92.337 4.489L92.4634 4.56419C92.3417 5.25439 92.2391 4.08152 91.933 4.4866C91.6985 4.35437 91.2793 5.84702 91.0631 5.46254C90.9093 5.76572 91.2244 4.95262 91.0212 5.17285C91.055 4.81205 91.1295 4.9595 91.1171 4.65974C90.9241 4.79992 90.8645 4.23897 90.6195 4.44566L90.643 4.15915C90.3026 4.62584 90.1459 3.69772 89.9004 4.15752C89.5836 4.3377 89.7925 3.28356 89.4291 3.78364L89.3551 3.38308C89.2285 3.29637 89.2104 3.83628 89.087 3.62316C89.1234 3.38331 88.9219 3.40226 89.036 3.18344C88.7474 2.74942 88.3085 3.60252 87.9487 2.89464C87.804 3.34784 87.619 3.03392 87.5076 3.37368C87.5209 3.16722 87.0776 3.26645 87.3659 2.86627C87.389 2.83287 87.4249 2.84613 87.4148 2.92617L87.4742 2.65292C87.2837 2.0856 86.9917 2.86531 86.7575 2.7446C86.8192 2.85116 86.9199 2.8388 86.8347 3.01875L86.6133 2.94469L86.6856 2.71809L86.3607 2.52392L86.3671 2.8234C86.2268 2.64972 86.2218 2.14321 85.9924 2.52325C85.8841 2.7366 86.1082 2.93736 85.9196 3.00297C85.7185 2.76881 85.4198 2.41484 85.1496 2.28087C85.139 2.61403 85.0671 2.58752 84.9792 2.64077L85.0027 2.35426C84.6596 2.69425 84.9592 1.71355 84.6322 1.97378L84.6815 1.78057L84.5395 2.36048C84.2121 2.87382 84.461 1.74683 84.0785 2.4646C84.2026 2.43612 84.0684 3.09694 83.9346 2.95236L84.0001 2.68515C83.9119 2.72688 83.8728 2.84004 83.8298 2.77466C83.8921 2.63387 83.8985 2.38105 83.7744 2.40952L83.892 2.08157L83.611 2.5454C83.4733 2.22228 83.1596 2.54643 83.1272 2.1479C83.1272 2.1479 82.7772 1.89498 82.6435 2.30269C82.745 2.0545 82.552 1.91854 82.6466 1.62398C82.5161 1.90528 82.2054 2.09727 82.127 1.76553L82.15 1.73213C81.7673 1.33955 81.3847 2.05156 81.0481 1.59219C81.0316 1.92506 80.8487 1.70905 80.8521 2.14069C80.4141 2.48757 80.2371 1.16725 79.9497 2.43619C79.7663 2.47329 79.77 2.09377 79.6911 2.01514L79.7433 1.95439C79.3998 2.00095 79.3047 2.00208 79.0596 1.92686C78.9252 2.02963 78.8372 2.62942 78.6313 2.4468C78.7274 2.22136 78.6329 2.24552 78.5495 2.23571C78.6083 2.20981 78.6302 2.12458 78.5431 1.94199C78.521 2.0157 78.4921 2.05457 78.4631 2.08768C78.4628 2.0704 78.4624 2.05312 78.4619 2.03009C78.3147 2.09196 78.3282 2.16741 78.3887 2.21637C78.3835 2.25064 78.3846 2.30247 78.392 2.37187C78.2839 2.03868 77.993 2.32368 78.0198 1.91076C77.5926 1.93599 77.2503 2.31053 76.89 2.40806C76.8734 2.18863 76.9766 2.01531 77.0821 1.95141L76.8275 1.98504C76.8625 1.68183 76.9845 1.8316 77.0666 1.78382C76.8293 1.24298 76.4098 2.17181 76.1196 1.66292L76.0236 1.89413L76.0049 1.85295C75.9898 1.97878 75.8983 2.14116 75.8396 2.17282C75.8218 1.90156 75.9095 1.56065 75.7371 1.55225C75.63 1.27089 75.3404 1.61349 75.1529 1.73092C75.2433 1.79286 75.1929 1.93423 75.1472 2.0183C75.064 2.01425 75.0401 1.73694 74.9652 1.8426L74.999 1.4818C74.9946 1.82677 74.7388 1.80857 74.6884 1.94994C74.6706 1.67868 74.8443 1.74467 74.8875 1.54541C74.5425 1.52287 74.7151 1.53702 74.3759 1.509C74.1672 1.74622 74.3715 1.85397 74.2532 2.15312C74.0878 2.19685 73.9025 2.41795 73.7428 2.1743L73.7678 2.50344C73.4394 2.70032 73.2657 2.63433 73.0976 2.27521C70.5792 4.4826 72.2396 5.73131 72.2396 5.73131C73.0421 6.58156 73.5999 5.73425 74.6736 5.6657L74.6846 5.62596Z" fill="#2C3538"/>
</g>
<defs>
<clipPath id="clip0_347_39612">
<rect width="99" height="26" fill="white"/>
</clipPath>
</defs>
</svg>
