<svg width="93" height="67" viewBox="0 0 93 67" fill="none" xmlns="http://www.w3.org/2000/svg">
<path d="M28.2825 8.53971C28.7202 9.00048 29.0531 9.44886 29.3235 9.89142C29.3904 10.0043 29.4476 10.1164 29.5085 10.2248C29.5724 10.3318 29.6252 10.4425 29.6734 10.5517C29.7239 10.6616 29.773 10.7686 29.8204 10.8726C29.8613 10.9818 29.9006 11.0881 29.9407 11.1921C30.2517 12.0311 30.3824 12.8083 30.4008 13.5732C30.4147 14.3365 30.3299 15.0993 30.0565 15.9008C29.912 16.2953 29.7223 16.7142 29.467 17.0993C29.1968 17.4843 28.8495 17.8784 28.3904 18.2431C27.4935 18.9156 26.3192 19.3175 25.2008 19.3082C24.6434 19.3016 24.0981 19.1984 23.6211 18.9776C23.5011 18.921 23.3899 18.8525 23.2736 18.7921C23.1536 18.7354 23.0653 18.6499 22.9586 18.5829C22.7636 18.423 22.5752 18.2505 22.4193 18.047C22.2229 17.8915 22.0496 17.643 21.8932 17.3582C21.7493 17.0653 21.6408 16.7252 21.5865 16.3782C21.5277 16.0299 21.5432 15.6813 21.5924 15.366C21.6084 15.2043 21.6588 15.0588 21.6897 14.9118C21.7438 14.7774 21.7763 14.6333 21.838 14.5136C21.9309 14.4116 22.0611 14.3243 22.1757 14.2392C22.3698 13.92 22.7184 13.6049 23.1107 13.4884L23.0984 13.5261C23.3552 13.3699 23.6642 13.2432 23.967 13.1807C24.0419 13.1636 24.1139 13.148 24.1814 13.1309C24.2504 13.1168 24.3194 13.11 24.3825 13.0988C24.5095 13.0817 24.6155 13.0527 24.7009 13.0415L24.6751 13.0748L25.0888 13.0365L25.5137 13.024L25.3691 13.0722C25.9752 13.0211 26.6196 13.0563 27.2488 13.1454C27.5642 13.1877 27.8737 13.2478 28.1781 13.316C28.4944 13.393 28.804 13.4678 29.1047 13.5397L29.0293 13.3848C31.657 14.0895 32.7224 13.8457 35.0218 14.3368L34.9855 14.3642C36.4696 14.3833 37.5751 14.7028 38.6486 15.1124C38.9182 15.2109 39.1828 15.3323 39.4548 15.439C39.726 15.5552 39.9995 15.6795 40.2886 15.7943C40.4063 15.8428 40.5017 15.8914 40.6129 15.9525C40.7233 16.0158 40.818 16.074 40.9628 16.1757C41.236 16.3613 41.5189 16.555 41.8227 16.7606C41.5226 16.5513 41.8929 16.9162 41.8468 16.9207C42.3572 17.3489 42.8412 17.8421 43.2115 18.2217C43.5796 18.6007 43.8466 18.8579 43.9628 18.7906C44.5233 19.6085 44.3361 19.5076 44.3208 19.6671C44.4177 19.5983 44.912 20.3085 45.2214 21.0168C45.1635 20.9143 45.0982 20.8118 45.0314 20.7137C45.3575 21.371 45.6243 22.0579 45.8252 22.7649C45.8568 22.6084 45.8929 22.4459 45.9208 22.2856C46.0517 22.8665 46.0025 22.9559 45.9674 23.0327C45.9292 23.111 45.917 23.1782 46.0417 23.7177L46.2198 23.6732C46.3396 24.4836 46.271 25.1216 46.1315 25.7265C45.9854 26.3292 45.7722 26.9025 45.454 27.5468C45.3218 27.8962 45.1434 28.2206 44.956 28.5346C44.7491 28.8325 44.5349 29.1303 44.2727 29.3707C44.024 29.6302 43.7273 29.8249 43.4276 30.0136C43.2668 30.0884 43.1136 30.178 42.9453 30.238C42.7763 30.2929 42.6074 30.37 42.4382 30.4027C41.7623 30.5684 41.0279 30.5208 40.3878 30.2538C39.7493 29.9897 39.2214 29.4944 38.9238 28.8784C38.7836 28.5744 38.6982 28.2541 38.6834 27.9226C38.6701 27.5941 38.737 27.2551 38.8559 26.9308C38.9727 26.6058 39.1527 26.2917 39.3804 26.013C39.6082 25.7343 39.8651 25.4726 40.1624 25.2684C40.74 24.8518 41.4502 24.5967 42.1843 24.4797C42.9192 24.3604 43.6816 24.3755 44.4305 24.4622L44.6864 24.6176C44.7361 24.7224 45.1505 24.6819 45.5948 24.6708C45.8169 24.6653 46.0442 24.6591 46.2264 24.6699C46.4093 24.6858 46.5506 24.7151 46.5986 24.7727C46.8401 24.7834 47.0802 24.7985 47.3212 24.8262C47.5104 24.9056 47.9163 25.0342 47.5586 25.0001C48.2002 25.1645 48.2246 25.1356 48.7006 25.2087C48.9168 25.3191 49.1337 25.4199 49.3455 25.5363C50.5701 25.9907 51.6913 26.4282 52.7991 26.9596C53.9008 27.4939 54.9884 28.1242 56.0648 28.9841C56.6771 29.5465 57.4261 30.2128 58.141 31.0128C58.8573 31.8083 59.5456 32.7345 60.0078 33.7534C60.2378 34.2588 60.4219 34.7982 60.5167 35.3156C60.6153 35.8367 60.6374 36.372 60.5977 36.8844C60.5056 37.91 60.1432 38.832 59.671 39.4625C59.3545 39.9207 58.9231 40.3068 58.4084 40.5623C58.2765 40.6171 58.1469 40.6801 58.0112 40.7312C57.8718 40.7713 57.7301 40.8107 57.5907 40.8508C57.3095 40.908 57.0183 40.9277 56.7299 40.9089C56.1523 40.8736 55.5825 40.6715 55.1292 40.3333C54.6745 39.9996 54.3244 39.5357 54.1605 39.0177C53.7949 38.0134 54.2647 36.9082 55.0867 36.1472C55.8893 35.3774 57.032 35.0116 58.2368 34.8333C58.3937 34.8456 58.8071 34.7704 58.804 34.7498C59.1836 34.747 59.5672 34.7626 59.953 34.7938C60.3389 34.8323 60.7271 34.879 61.1131 34.9323C61.8823 35.0625 62.6494 35.2142 63.397 35.4478C63.397 35.4478 63.4826 35.4735 63.639 35.5176C63.7968 35.5572 64.018 35.6373 64.2958 35.7336C64.4365 35.7799 64.587 35.8343 64.7516 35.8909C64.9132 35.9564 65.0861 36.0255 65.2694 36.1005C65.6403 36.2373 66.0332 36.4353 66.4581 36.6266C67.2923 37.041 68.2 37.563 69.0525 38.1479C69.9049 38.7328 70.6858 39.3924 71.3496 39.9865C71.6696 40.2931 71.9805 40.5673 72.2282 40.8305C72.3599 40.9572 72.4795 41.0752 72.5924 41.1835C72.7024 41.2934 72.8034 41.3929 72.8902 41.4828C73.2506 41.8322 73.47 41.9707 73.4718 41.7846C73.4726 41.6916 73.4165 41.516 73.2935 41.2423C73.2288 41.108 73.16 40.9405 73.0533 40.7605C72.9466 40.5805 72.8241 40.3733 72.6755 40.1402C72.069 39.2286 71.0616 37.8953 69.2149 36.4186L69.3445 36.4538C67.0607 34.8308 65.3347 34.1771 63.4296 33.8648C63.3748 33.7756 63.2071 33.6983 62.9748 33.6293C62.7418 33.5624 62.4522 33.4868 62.1451 33.4423C61.8372 33.3999 61.5173 33.3561 61.2362 33.3152C60.9529 33.2883 60.7053 33.2584 60.5445 33.2203L60.6091 33.2047C59.7493 33.2067 58.8631 33.1313 57.9479 33.1667C57.0423 33.2028 56.0857 33.3792 55.3064 33.8596C55.3596 33.8108 55.3597 33.72 55.7495 33.5584C55.1411 33.8052 54.4351 34.2434 53.9662 34.6834C53.4815 35.1109 53.1862 35.5122 53.0888 35.5072C52.8526 35.8494 52.6285 36.2374 52.4761 36.6784C52.3155 37.1142 52.2102 37.6002 52.2106 38.1037C52.205 38.6028 52.2887 39.1239 52.4775 39.5887C52.5564 39.8308 52.6856 40.0403 52.7962 40.2608L52.9974 40.5677C53.0694 40.665 53.1473 40.7594 53.2222 40.8553C53.8491 41.5992 54.6896 42.0623 55.4622 42.2649C56.2409 42.4719 56.9524 42.431 57.4614 42.3062L57.3235 42.364C57.4712 42.329 57.6055 42.2971 57.7271 42.2585C57.7871 42.2414 57.8465 42.2266 57.9036 42.211C57.9592 42.1924 58.0103 42.1724 58.063 42.1554C58.1653 42.1227 58.2624 42.0908 58.3588 42.0611C58.4545 42.0337 58.548 42.0055 58.6383 41.964C58.7295 41.9277 58.8214 41.8891 58.9185 41.8499C59.0155 41.8106 59.1163 41.7676 59.2155 41.7069C59.3162 41.6492 59.4242 41.584 59.5397 41.5115C59.6566 41.4419 59.7629 41.3369 59.8878 41.2356C59.956 41.2089 60.0382 41.1623 60.0309 41.177C60.247 40.9412 60.5097 40.6617 60.7557 40.335C60.8892 40.1775 60.992 39.9928 61.1164 39.8176C61.2326 39.6373 61.328 39.4452 61.4337 39.259C61.8203 38.4972 62.023 37.6921 62.0429 37.21L62.1555 37.1611C62.2535 36.3658 62.2207 35.5544 62.049 34.7662L62.1151 35.2128C62.1355 35.3619 62.1379 35.5125 62.1486 35.6609C62.0686 35.5879 62.0349 35.4418 62.009 35.2343C61.9698 35.0299 61.9642 34.753 61.908 34.4497C61.814 33.8392 61.6007 33.0422 61.1079 32.3423C60.7406 31.6371 60.1558 31.0665 59.5498 30.5602C58.9394 30.0525 58.3092 29.5972 57.7779 29.0295C57.1274 28.6436 58.4187 29.2943 57.5079 28.646C57.5753 28.5086 57.9659 28.917 57.8244 28.6396C57.3808 28.3095 57.0562 27.994 56.6871 27.6786C56.5047 27.5179 56.3134 27.3543 56.0887 27.1945C55.8676 27.0309 55.6183 26.863 55.3149 26.7017L55.3319 26.5747C54.5223 26.1832 53.8149 25.7369 53.1437 25.3614C52.4776 24.9777 51.8514 24.6686 51.2627 24.5388C50.3892 24.2515 50.1221 24.0851 49.8416 23.9142C49.7013 23.8288 49.5537 23.7581 49.3228 23.6773C49.0942 23.5971 48.7764 23.5245 48.2945 23.4618C48.0656 23.3447 47.8324 23.2484 47.5984 23.1395C47.1972 23.0345 47.0383 23.0658 46.8749 23.0734C46.7093 23.0877 46.5399 23.0835 46.0926 22.9831C46.1272 22.938 45.8437 22.8742 45.6168 22.8265C45.3898 22.7789 45.2216 22.7408 45.4957 22.7278C44.4623 22.5278 43.3409 22.5199 42.1327 22.7389C41.5301 22.855 40.9026 23.0243 40.2676 23.2992C39.6244 23.5763 38.9723 23.956 38.3709 24.4752C38.1968 24.7863 37.8483 25.2291 37.5892 25.716C37.3174 26.1964 37.1805 26.7333 37.1867 27.0006C37.1593 27.0161 37.1117 27.2288 37.0638 27.5102C37.0536 27.6542 37.0428 27.8151 37.0364 27.9776C37.0397 28.1407 37.0549 28.3054 37.0656 28.4537C37.1069 28.7497 37.159 28.983 37.1481 29.031C37.1425 29.0782 37.0651 28.9447 36.9312 28.4709C36.8989 28.3056 36.8783 28.0066 36.9134 28.028C36.872 27.9505 36.8403 27.8738 36.8026 27.7926C36.7552 28.0422 36.7792 28.2932 36.7875 28.5391C36.8046 28.6601 36.827 28.7804 36.85 28.8985C36.8724 29.0188 36.9006 29.1362 36.9445 29.2439C37.0217 29.4682 37.1086 29.6859 37.228 29.8799C37.2844 29.9795 37.3386 30.0783 37.4016 30.1727L37.6026 30.4426C37.8842 30.7907 38.2125 31.0951 38.5738 31.3589C38.9389 31.6189 39.3379 31.8361 39.7686 32.0244C39.2633 31.7845 38.6534 31.3654 39.1095 31.567C39.593 31.8734 40.1309 32.0896 40.6824 32.212C40.562 32.2167 40.4365 32.222 40.3131 32.2207C41.1396 32.4705 42.0211 32.5149 42.8641 32.3453C42.7407 32.3366 42.6172 32.3132 42.4952 32.2927C42.6505 32.2799 42.79 32.262 42.9236 32.2396C43.058 32.2224 43.179 32.2008 43.2918 32.1741C43.518 32.1183 43.7341 32.0936 43.9372 32.0106C44.1395 31.9299 44.359 31.8646 44.5705 31.718C44.6793 31.6507 44.7918 31.5723 44.9116 31.4864C45.0261 31.394 45.1398 31.2816 45.2631 31.1625C45.4764 30.9355 45.2247 31.0836 45.0448 31.1791C44.8648 31.2746 44.7589 31.3257 45.2378 30.9307C45.3953 30.8131 45.546 30.6711 45.7137 30.5298C45.8717 30.3805 46.0237 30.2119 46.1845 30.0389C46.4794 29.6767 46.7739 29.2701 47.0058 28.8209C47.4873 27.9283 47.7882 26.9001 47.8836 25.9394C47.7301 26.105 47.7996 25.5925 47.7627 25.0647L47.8797 25.0025C47.8228 24.4902 47.7918 24.1927 47.7824 24.003C47.7737 23.8111 47.7924 23.7165 47.8118 23.6198C47.8305 23.5253 47.8522 23.4292 47.836 23.2373C47.8169 23.0469 47.7674 22.7531 47.6061 22.2875L47.7304 22.4364L47.3568 21.9992C46.9873 21.195 46.9435 20.9669 46.8964 20.7034C46.836 20.4503 46.7791 20.1491 46.1831 19.3638C46.5576 20.0321 46.1361 19.7854 45.7161 18.9621L45.9355 19.1079C45.6532 18.6713 45.5157 18.5549 45.3443 18.2554C45.4536 18.3674 45.5116 18.3792 45.4857 18.2847C45.4628 18.1887 45.35 17.9896 45.1139 17.6835L45.53 18.0218C45.1903 17.662 44.8462 17.3155 44.4792 16.9935C44.17 16.5259 43.6561 16.0106 43.18 15.5838C42.7075 15.1534 42.2632 14.8181 42.1266 14.6161C42.1266 14.6161 42.0974 14.5917 42.0444 14.5497C41.9981 14.5099 41.8965 14.4348 41.7831 14.3582C41.6674 14.2808 41.5256 14.1925 41.3601 14.1086C41.2773 14.0666 41.1901 14.0232 41.0985 13.9857C41.024 13.9562 40.9502 13.9246 40.8735 13.8945C40.2677 13.6436 39.5708 13.4291 39.2876 13.4244C39.7768 13.465 38.539 13.0357 38.9313 13.0248C38.7744 13.0051 38.546 12.9692 38.2782 12.9254C38.1451 12.9012 38.0029 12.8741 37.8556 12.8478C37.7083 12.8214 37.5558 12.7958 37.4018 12.7672C36.7888 12.6515 36.1713 12.5417 35.8287 12.4241L35.9648 12.432C34.6589 12.1572 33.5714 12.1064 32.5372 12.0069C31.5037 11.9125 30.5154 11.7937 29.4485 11.4771C29.4824 11.5546 29.2191 11.5122 28.9751 11.4786C28.7126 11.4413 28.4761 11.4151 28.6106 11.533C27.3879 11.3592 26.2659 11.1424 25.2864 11.1173C24.3157 11.0804 23.4883 11.2552 23.1083 11.6581C22.5337 11.8473 22.1951 12.0036 21.9172 12.1185C21.7742 12.1696 21.6565 12.234 21.538 12.3007C21.4203 12.3725 21.2877 12.4295 21.1629 12.5456C21.2292 12.4643 21.3083 12.397 21.3858 12.3267C21.3252 12.3756 21.2646 12.417 21.2084 12.4673C21.1545 12.5183 21.1029 12.5701 21.0526 12.6174C20.953 12.7172 20.8533 12.8097 20.7692 12.9073C20.6911 13.0093 20.6145 13.1068 20.5415 13.2007C20.4686 13.2946 20.3994 13.3848 20.3465 13.4853C20.2899 13.5821 20.2341 13.6767 20.1819 13.7675C20.132 13.8592 20.0955 13.9552 20.0537 14.0446C20.0164 14.1355 19.9732 14.2219 19.944 14.3106C19.9149 14.3992 19.8909 14.4871 19.8633 14.5713C19.8064 14.7442 19.7778 14.914 19.747 15.0831C19.708 15.2545 19.7039 15.425 19.6873 15.6037C19.6644 15.9596 19.684 16.3369 19.7507 16.7738C19.8606 17.2004 20.0106 17.4217 20.1805 17.7108C20.275 17.8524 20.3571 18.0169 20.487 18.2168C20.6057 18.4204 20.7538 18.6705 20.9639 18.9802C20.8697 18.8977 20.8242 18.8631 20.8145 18.8697C20.8027 18.8756 20.8253 18.9199 20.8725 18.987C20.9198 19.0541 20.9903 19.1485 21.0704 19.251C21.1529 19.3543 21.2576 19.4575 21.3534 19.5651C21.2225 19.4361 21.1306 19.3543 21.1315 19.3816C21.1361 19.4052 21.2084 19.5543 21.4704 19.8418C21.5755 19.8911 21.704 19.9972 21.8442 20.0753C21.8435 20.0849 21.8653 20.1092 21.8459 20.1077C22.2506 20.398 22.4464 20.4501 22.4687 20.4575C22.4962 20.4567 22.3649 20.3742 22.1798 20.2519C22.2065 20.2534 22.1847 20.2143 22.0897 20.1118C22.1353 20.1538 22.1839 20.2017 22.2377 20.2415C22.2944 20.2798 22.3511 20.3181 22.4093 20.3594C22.5295 20.4382 22.6593 20.5177 22.7921 20.5958C22.9322 20.6591 23.0753 20.7209 23.2191 20.7804C23.2914 20.8091 23.3599 20.8415 23.4314 20.865C23.5036 20.8863 23.5766 20.9054 23.6443 20.9252C23.7843 20.9664 23.9183 21.0031 24.0382 21.0376C24.1609 21.0632 24.2748 21.086 24.37 21.105C24.5642 21.1468 24.6924 21.1938 24.7186 21.2344C25.4383 21.2894 26.0976 21.2042 26.7 21.066C26.9944 20.9762 27.2875 20.9056 27.5549 20.7848C27.6898 20.7285 27.8254 20.6774 27.9543 20.6166C28.0802 20.55 28.2054 20.4856 28.3312 20.4189C28.4579 20.3575 28.5763 20.2834 28.6902 20.208C28.8064 20.1332 28.9203 20.0577 29.0365 19.983C29.2509 19.8128 29.4735 19.6552 29.6729 19.4704C29.8708 19.2825 30.0739 19.1013 30.2479 18.8884C30.3371 18.7827 30.4353 18.6873 30.517 18.5742C30.5988 18.4612 30.6805 18.3481 30.7652 18.2335C30.8791 18.158 30.8707 18.2363 30.7857 18.4048C30.7431 18.489 30.6784 18.5954 30.6019 18.7151C30.5195 18.8304 30.4133 18.9502 30.3041 19.0788L30.5823 18.775C30.6693 18.6685 30.748 18.5569 30.8313 18.4468C31.0052 18.2339 31.1351 17.9893 31.277 17.7536C31.3292 17.7904 31.2192 18.0047 31.0619 18.2648C30.8792 18.5043 30.6634 18.7992 30.4863 18.984C30.8669 18.6623 31.1762 18.2484 31.434 17.7954C31.5581 17.5686 31.6561 17.3307 31.7593 17.092C31.8357 16.8446 31.9307 16.6008 31.9877 16.3445C32.2343 15.3231 32.2926 14.2495 32.2622 13.1295L32.1069 12.6831C32.1089 12.6395 32.1012 12.5952 32.1009 12.5509C32.0764 12.5576 32.0221 12.444 31.9646 12.2876C31.9359 12.2094 31.9071 12.1238 31.879 12.036C31.8457 11.9489 31.8147 11.8625 31.7904 11.7858C31.8042 11.6234 31.8651 11.6114 31.8889 11.5088C31.9157 11.4046 31.8877 11.2113 31.697 10.6918C31.579 10.2674 31.3233 9.68974 30.9437 9.14989C30.5723 8.60781 30.1133 8.0762 29.7028 7.69069C30.0968 8.1567 29.917 8.04844 29.7145 7.88116C29.6232 7.78237 29.5483 7.6865 29.4786 7.59728C29.4081 7.51026 29.3422 7.4321 29.2786 7.35468C29.1542 7.19835 29.0336 7.06047 28.8575 6.94114L28.9175 6.79634C28.9502 6.92254 28.6664 6.70149 28.3261 6.47904C28.1619 6.36117 27.9798 6.24479 27.8291 6.15348C27.6784 6.06216 27.559 5.98851 27.5084 5.97678C27.3157 5.71202 28.2533 6.36915 28.3992 6.40731C28.1863 6.23414 28.0012 6.11187 27.8526 6.00652C27.7048 5.89895 27.5824 5.81941 27.4809 5.75902C27.2795 5.63382 27.166 5.55721 27.0467 5.49095C26.8088 5.36359 26.5856 5.19929 25.5981 4.75413C24.4983 4.40956 25.7346 4.95622 25.1804 4.86478C24.2426 4.50963 23.2953 4.311 22.2009 3.99522C22.3106 4.06076 22.4173 4.12778 22.5248 4.19997C21.6113 4.0419 20.8803 3.96845 20.2267 3.89341C19.5715 3.81542 18.99 3.74692 18.3713 3.67108C16.654 3.77414 15.3499 4.00575 14.3615 4.20366C13.3731 4.40895 12.6988 4.59235 12.2621 4.73847C11.391 5.03144 11.4766 5.17011 11.9756 5.22619C12.4745 5.28227 13.3846 5.25503 14.1632 5.23611C14.9381 5.21351 15.5926 5.19552 15.5926 5.19552C16.8921 5.18097 18.0158 5.19697 19.0639 5.25442C20.1127 5.30965 21.0845 5.41078 22.0673 5.58425C23.0464 5.7688 24.049 6.02492 25.0996 6.46629C26.1443 6.91061 27.2564 7.53425 28.281 8.54415L28.2825 8.53971Z" fill="#FF6200"/>
<path d="M54.2068 50.653C52.7749 51.5687 52.1396 53.3055 52.6388 54.9278C52.6747 55.0458 52.7121 55.1692 52.7501 55.3012C53.1464 56.659 54.7314 57.0826 56.0269 57.7011C57.9629 58.6249 60.233 57.8256 62.2013 57.0216L83.1455 48.4792C85.6789 47.4464 86.8633 44.5549 85.7196 42.077C85.7113 42.061 85.7045 42.0455 85.6967 42.028C84.9992 40.5495 83.6038 39.3788 82.1222 38.646C80.9935 38.0873 79.6527 38.3081 78.4309 38.5797C71.0669 40.2065 59.0536 47.5546 54.2052 50.6525L54.2068 50.653Z" fill="#FF6200"/>
</svg>
